<svg width="2544" height="640" viewBox="0 0 2544 640" fill="none" xmlns="http://www.w3.org/2000/svg">
<path d="M320 610.9C480.659 610.9 610.9 480.66 610.9 320C610.9 159.34 480.659 29.1001 320 29.1001C159.34 29.1001 29.0996 159.34 29.0996 320C29.0996 480.66 159.34 610.9 320 610.9Z" fill="#33A9FF"/>
<path d="M475.2 593.4C336.1 673.7 166.8 640.9 97 520.1C97 520.1 100 501.9 144.8 492.5C154.6 490.4 191.8 487.6 218.3 456.6C223.6 450.4 228.1 428.2 275.7 419.3C317.1 411.5 314.2 419.1 343.8 383.3C364.5 358.3 369.8 342.4 405.9 335.8C432 331.1 449.2 334.7 466.8 309.4C478.7 292.4 488.3 270.7 530.9 265.4C582.8 258.9 600.9 229.3 600.9 229.3C670.6 350 614.4 513.1 475.2 593.4Z" fill="white"/>
<path d="M401.476 416.373C424.911 402.842 441.403 387.53 438.31 382.173C435.217 376.817 413.711 383.443 390.276 396.974C366.84 410.505 350.349 425.817 353.442 431.173C356.535 436.53 378.04 429.903 401.476 416.373Z" fill="#B1C6DD"/>
<path d="M634 257.9C605.1 110.9 475.5 0 320 0C143.3 0 0 143.3 0 320C0 414.5 41 499.5 106.2 558C162.9 609 237.8 640 320 640C496.7 640 640 496.7 640 320C640 298.8 637.9 278 634 257.9ZM320 608C249.7 608 185.2 582.8 135.2 540.9C72.1 488.1 32 408.7 32 320C32 160.9 160.9 32 320 32C463.7 32 582.8 137.2 604.5 274.8C606.8 289.5 608 304.6 608 320C608 479.1 479.1 608 320 608Z" fill="white"/>
<path d="M234.6 404.9C242.94 404.9 249.7 398.14 249.7 389.8C249.7 381.461 242.94 374.7 234.6 374.7C226.261 374.7 219.5 381.461 219.5 389.8C219.5 398.14 226.261 404.9 234.6 404.9Z" fill="white"/>
<path d="M246.8 393.3C243.4 400.9 234.5 404.3 226.9 400.9C224.5 399.8 222.5 398.2 221 396.2C222.5 399.3 225 401.9 228.4 403.5C236 406.9 244.9 403.5 248.3 395.9C250.6 390.7 249.8 384.9 246.6 380.6C248.5 384.5 248.7 389.1 246.8 393.3Z" fill="#C7D8EF"/>
<path d="M224 450.3C227.866 450.3 231 447.166 231 443.3C231 439.434 227.866 436.3 224 436.3C220.134 436.3 217 439.434 217 443.3C217 447.166 220.134 450.3 224 450.3Z" fill="white"/>
<path d="M229.699 445C228.099 448.5 223.899 450.1 220.399 448.4C219.299 447.9 218.399 447.1 217.699 446.2C218.399 447.7 219.499 448.9 221.099 449.6C224.599 451.2 228.799 449.7 230.399 446.2C231.499 443.8 231.199 441.1 229.699 439.1C230.499 440.9 230.599 443.1 229.699 445Z" fill="#C7D8EF"/>
<path d="M155.699 478.3C159.565 478.3 162.699 475.166 162.699 471.3C162.699 467.434 159.565 464.3 155.699 464.3C151.833 464.3 148.699 467.434 148.699 471.3C148.699 475.166 151.833 478.3 155.699 478.3Z" fill="white"/>
<path d="M161.499 472.1C160.399 475.8 156.499 478 152.799 476.9C151.599 476.6 150.599 475.9 149.799 475.1C150.699 476.4 151.999 477.5 153.699 478C157.399 479.1 161.299 476.9 162.399 473.2C163.099 470.7 162.399 468 160.599 466.3C161.699 468 162.099 470.1 161.499 472.1Z" fill="#C7D8EF"/>
<path d="M116.1 453.8C118.033 453.8 119.6 452.233 119.6 450.3C119.6 448.367 118.033 446.8 116.1 446.8C114.167 446.8 112.6 448.367 112.6 450.3C112.6 452.233 114.167 453.8 116.1 453.8Z" fill="white"/>
<path d="M119 450.8C118.4 452.7 116.5 453.7 114.6 453.1C114 452.9 113.5 452.6 113.1 452.2C113.5 452.9 114.2 453.4 115 453.7C116.9 454.3 118.8 453.2 119.4 451.4C119.8 450.1 119.4 448.8 118.6 447.9C119.1 448.7 119.3 449.7 119 450.8Z" fill="#C7D8EF"/>
<path d="M189.5 429.1C193.366 429.1 196.5 425.966 196.5 422.1C196.5 418.234 193.366 415.1 189.5 415.1C185.634 415.1 182.5 418.234 182.5 422.1C182.5 425.966 185.634 429.1 189.5 429.1Z" fill="white"/>
<path d="M195.399 422.8C194.399 426.6 190.599 428.8 186.799 427.8C185.599 427.5 184.599 426.9 183.699 426.1C184.599 427.4 185.999 428.4 187.699 428.9C191.499 429.9 195.299 427.6 196.299 423.9C196.999 421.3 196.099 418.7 194.299 417C195.499 418.6 195.899 420.7 195.399 422.8Z" fill="#C7D8EF"/>
<path d="M137.3 438.2C136.8 438.2 136.4 438 136 437.6C135.4 436.9 135.6 435.9 136.3 435.4L214.4 373.3C215.1 372.7 216.1 372.9 216.6 373.6C217.2 374.3 217 375.3 216.3 375.8L138.2 437.9C138 438.1 137.6 438.2 137.3 438.2Z" fill="white"/>
<path d="M119.2 402.5C118.7 402.5 118.3 402.3 117.9 401.9C117.3 401.2 117.5 400.2 118.2 399.7L196.3 337.6C197 337 198 337.2 198.5 337.9C199.1 338.6 198.9 339.6 198.2 340.1L120.1 402.2C119.9 402.4 119.6 402.5 119.2 402.5Z" fill="white"/>
<path d="M175.801 382.3C175.601 382.3 175.301 382.2 175.201 382C174.901 381.7 175.001 381.2 175.301 380.9L204.501 357.7C204.801 357.4 205.301 357.5 205.601 357.8C205.901 358.1 205.801 358.6 205.501 358.9L176.301 382.1C176.101 382.2 176.001 382.3 175.801 382.3Z" fill="white"/>
<path d="M168.699 463.3C168.499 463.3 168.199 463.2 168.099 463C167.799 462.7 167.899 462.2 168.199 461.9L197.399 438.7C197.699 438.4 198.199 438.5 198.499 438.8C198.799 439.1 198.699 439.6 198.399 439.9L169.199 463.1C169.099 463.3 168.899 463.3 168.699 463.3Z" fill="white"/>
<path d="M166 340C165.8 340 165.5 339.9 165.4 339.7C165.1 339.4 165.2 338.9 165.5 338.6L187.3 321.2C187.6 320.9 188.1 321 188.4 321.3C188.7 321.6 188.6 322.1 188.3 322.4L166.5 339.8C166.3 340 166.2 340 166 340Z" fill="white"/>
<path d="M311.301 385.7C373.157 385.7 423.301 335.556 423.301 273.7C423.301 211.844 373.157 161.7 311.301 161.7C249.445 161.7 199.301 211.844 199.301 273.7C199.301 335.556 249.445 385.7 311.301 385.7Z" fill="white"/>
<path d="M395.1 199.5C412.6 219.3 423.2 245.2 423.2 273.7C423.2 335.6 373.1 385.7 311.2 385.7C273.5 385.7 240.2 367.1 219.9 338.6C240.4 361.7 270.4 376.3 303.7 376.3C365.6 376.3 415.7 326.2 415.7 264.3C415.8 240.2 408.1 217.8 395.1 199.5Z" fill="#C7D8EF"/>
<path d="M754.2 436.2C747 427.3 743.4 419.4 743.4 412.3C743.4 405.2 749.3 395.9 761.2 384.3C768.1 377.7 775.5 374.3 783.2 374.3C790.9 374.3 801.7 381.2 815.6 395.1C819.5 399.8 825 404.3 832.2 408.6C839.4 412.9 846 415 852.1 415C877.8 415 890.7 404.5 890.7 383.4C890.7 377 887.2 371.7 880.1 367.4C873 363.1 864.3 360 853.7 358.1C843.2 356.2 831.8 353.1 819.7 348.8C807.5 344.5 796.2 339.5 785.7 333.6C775.2 327.8 766.4 318.6 759.3 306C752.2 293.4 748.7 278.3 748.7 260.5C748.7 236.2 757.8 214.9 775.9 196.8C794 178.7 818.7 169.6 850 169.6C866.6 169.6 881.8 171.7 895.5 176C909.2 180.3 918.7 184.7 923.9 189.1L934.3 197C942.9 205 947.2 211.8 947.2 217.3C947.2 222.8 943.9 230.4 937.2 240.1C927.8 253.9 918.1 260.9 908.1 260.9C902.3 260.9 895.1 258.1 886.5 252.6C885.7 252 884.1 250.7 881.7 248.4C879.3 246.2 877.2 244.4 875.3 243C869.5 239.4 862.1 237.6 853.1 237.6C844.1 237.6 836.6 239.7 830.7 244C824.7 248.3 821.8 254.2 821.8 261.9C821.8 269.5 825.3 275.7 832.4 280.4C839.5 285.1 848.2 288.3 858.8 289.9C869.3 291.6 880.8 294.1 893.3 297.6C905.8 301.1 917.2 305.3 927.8 310.3C938.3 315.3 947.1 323.9 954.2 336.2C961.3 348.5 964.8 363.7 964.8 381.7C964.8 399.7 961.2 415.5 954 429.2C946.8 442.9 937.4 453.5 925.8 461C903.4 475.7 879.4 483 854 483C841 483 828.7 481.4 817.1 478.2C805.5 475 796.1 471.1 788.9 466.4C774.2 457.5 764 449 758.2 440.7L754.2 436.2Z" fill="#1E2744"/>
<path d="M1113.3 260.2C1141 260.2 1164 270.8 1182.4 292C1200.8 313.2 1210 339 1210 369.4V442.5C1210 448.9 1209.8 453.6 1209.4 456.8C1209 460 1207.8 463.5 1205.9 467.4C1202 474.9 1191.2 478.6 1173.5 478.6C1153.8 478.6 1142.5 473.5 1139.5 463.2C1137.8 458.5 1137 451.4 1137 442V369C1137 357.7 1133.7 348.8 1127.2 342.4C1120.7 336 1112 332.9 1101 332.9C1090.1 332.9 1081.2 336.2 1074.4 342.9C1067.6 349.5 1064.2 358.3 1064.2 369.1V442.6C1064.2 449 1064 453.7 1063.6 456.9C1063.2 460.1 1061.9 463.6 1059.7 467.5C1056.1 475 1045.4 478.7 1027.7 478.7C1010.3 478.7 999.6 475 995.7 467.5C993.8 463.3 992.6 459.7 992.2 456.5C991.8 453.3 991.6 448.5 991.6 442.2V295.2C991.6 289.1 991.8 284.5 992.2 281.3C992.6 278.1 993.9 274.6 996.1 270.7C1000 263.8 1010.6 260.3 1028.1 260.3C1045 260.3 1055.4 263.5 1059.2 269.8C1062 274.5 1063.4 280.2 1063.4 286.8C1064.5 284.9 1067 282.1 1070.9 278.5C1074.8 274.9 1078.5 272 1082.1 269.8C1091.5 263.4 1101.9 260.2 1113.3 260.2Z" fill="#1E2744"/>
<path d="M1271.8 287.6C1295 266 1321.6 255.2 1351.5 255.2C1381.4 255.2 1407.8 265.9 1430.8 287.4C1453.8 308.8 1465.3 336.2 1465.3 369.4C1465.3 392.4 1459.3 412.8 1447.5 430.6C1435.6 448.4 1421.1 461.6 1404.1 470C1387.1 478.4 1369.4 482.7 1351.2 482.7C1332.9 482.7 1315.2 478.2 1298.1 469.2C1280.9 460.2 1266.5 446.9 1254.7 429.3C1242.9 411.7 1237.1 391.9 1237.1 369.7C1237 336.6 1248.6 309.2 1271.8 287.6ZM1323.7 399.5C1332.6 406.3 1341.6 409.7 1350.7 409.7C1359.8 409.7 1369 406.2 1378.1 399.3C1387.2 392.4 1391.8 382.1 1391.8 368.6C1391.8 355 1387.5 344.9 1378.9 338.3C1370.3 331.7 1361 328.3 1351.1 328.3C1341.1 328.3 1331.9 331.8 1323.3 338.7C1314.7 345.6 1310.4 355.8 1310.4 369.2C1310.4 382.6 1314.9 392.7 1323.7 399.5Z" fill="#1E2744"/>
<path d="M1763.8 261.9C1781.5 269.7 1790.4 279.2 1790.4 290.5C1790.4 295.2 1788.2 302.7 1783.8 313.1C1779.4 323.5 1775.6 332.5 1772.6 340.3L1726.9 451.6C1722.7 463.8 1715.8 472.4 1706.1 477.3C1701.9 479.2 1696.7 480.2 1690.3 480.2C1683.9 480.2 1677.8 477.8 1671.8 472.9C1665.8 468.1 1661.9 463.1 1660 458.2L1656.7 451.1C1654.5 445.6 1646.3 424 1632.2 386.3C1629.4 392.9 1625.3 403.8 1620 418.9C1614.6 434 1611.1 443.4 1609.6 447.1C1608.1 450.8 1607.1 453.3 1606.7 454.6C1606.3 455.8 1605.1 458.1 1603.2 461.5C1601.3 464.8 1599 467.7 1596.6 470.2C1590 476.8 1582.3 480.2 1573.8 480.2C1565.2 480.2 1558 477.8 1552.2 472.9C1546.4 468.1 1542.5 463.1 1540.6 458.2L1477.9 305.4C1475.1 297.1 1473.7 291.7 1473.7 289.2C1473.7 278.1 1481.6 269.4 1497.4 263C1506.3 259.4 1513.4 257.6 1519 257.6C1524.5 257.6 1529 258.8 1532.5 261.1C1536 263.5 1538.4 265.8 1539.8 268.2C1541.2 270.6 1542.3 273 1543.1 275.5C1547.8 286.6 1557.6 312.6 1572.6 353.5L1597.1 286.2C1598.8 280.7 1601.8 275.8 1606.2 271.7C1614.2 263.7 1622.4 259.7 1630.7 259.7C1639 259.7 1646.1 261.9 1652.1 266.3C1658 270.7 1662.1 275.2 1664.3 279.6L1667.6 286.7C1681.4 325.5 1689.6 347.6 1692.1 353.1L1717.4 284.2C1724 266.5 1734 257.6 1747.3 257.6C1752.4 257.7 1757.9 259.1 1763.8 261.9Z" fill="#1E2744"/>
<path d="M1933.1 260.6C1957.7 260.6 1980.4 271.5 2001 293.4C2021.6 315.3 2031.9 340.7 2031.9 369.6C2031.9 398.5 2021.7 423.8 2001.2 445.6C1980.7 467.3 1958.7 478.2 1935.2 478.2C1911.7 478.2 1894.9 471.6 1885 458.3C1882.8 471.9 1870.9 478.6 1849.3 478.6C1831.9 478.6 1821.2 474.9 1817.3 467.4C1815.4 463.2 1814.2 459.6 1813.8 456.4C1813.4 453.2 1813.2 448.4 1813.2 442.1V194.2C1813.2 187.8 1813.4 183.1 1813.8 179.9C1814.2 176.7 1815.4 173.2 1817.3 169.3C1821.2 161.8 1832 158.1 1849.7 158.1C1867.1 158.1 1877.7 161.8 1881.3 169.3C1883.5 173.5 1884.8 177.1 1885.2 180.3C1885.6 183.5 1885.8 188.3 1885.8 194.6V281C1896.9 267.4 1912.6 260.6 1933.1 260.6ZM1896.8 394.7C1903.6 402.2 1912.1 405.9 1922.3 405.9C1932.5 405.9 1941.3 402.2 1948.5 394.7C1955.7 387.2 1959.3 378.9 1959.3 369.8C1959.3 360.7 1956 352.3 1949.3 344.7C1942.7 337.1 1933.8 333.3 1922.7 333.3C1911.6 333.3 1902.8 337.2 1896.3 344.9C1889.8 352.7 1886.5 361 1886.5 370C1886.6 379 1890 387.3 1896.8 394.7Z" fill="#1E2744"/>
<path d="M2200.9 283.5C2202.6 268 2213.5 260.3 2233.7 260.3C2244.5 260.3 2252.5 261.1 2257.8 262.8C2263.1 264.5 2266.7 267.4 2268.8 271.5C2270.9 275.7 2272.1 279.3 2272.5 282.5C2272.9 285.7 2273.1 290.5 2273.1 296.8V442C2273.1 448.4 2272.9 453.1 2272.5 456.3C2272.1 459.5 2270.9 463.1 2269 467.3C2265.1 474.5 2255.6 478.1 2240.6 478.1C2225.5 478.1 2215.4 476.2 2210.3 472.5C2205.2 468.8 2202.2 463.3 2201.4 456.1C2191.2 470.8 2174.1 478.1 2150.1 478.1C2126.2 478.1 2103.9 467.2 2083.5 445.3C2063 423.4 2052.8 398 2052.8 369.1C2052.8 340.2 2063.1 314.9 2083.7 293.1C2104.3 271.4 2126.9 260.5 2151.6 260.5C2161 260.5 2169.6 262.2 2177.3 265.5C2185 268.8 2190.4 271.9 2193.5 274.8C2196.5 277.9 2199 280.7 2200.9 283.5ZM2125.3 369.8C2125.3 378.9 2128.9 387.2 2136.1 394.5C2143.3 401.8 2152 405.5 2162.3 405.5C2172.5 405.5 2181 401.8 2187.8 394.3C2194.6 386.8 2198 378.6 2198 369.6C2198 360.6 2194.7 352.2 2188.2 344.5C2181.7 336.8 2173 332.9 2162 332.9C2151.1 332.9 2142.2 336.8 2135.4 344.5C2128.7 352.2 2125.3 360.7 2125.3 369.8Z" fill="#1E2744"/>
<path d="M2382.7 405.5C2391.8 405.5 2398.6 407.9 2403 412.6C2407.4 417.3 2409.6 427 2409.6 441.7C2409.6 456.4 2407.2 466.1 2402.5 471C2397.8 475.8 2391 478.3 2382.2 478.3C2354.2 478.3 2334.6 471.6 2323.3 458.2C2311.9 444.8 2306.3 422.4 2306.3 391.2V193C2306.3 186.6 2306.5 181.9 2306.9 178.7C2307.3 175.5 2308.5 171.9 2310.4 167.7C2314.3 160.5 2325.1 156.9 2342.8 156.9C2359.7 156.9 2370.2 160.8 2374.4 168.5C2376.6 172.4 2377.9 175.9 2378.3 179.1C2378.7 182.3 2378.9 187.1 2378.9 193.4V392.7C2379 401.2 2380.2 405.5 2382.7 405.5ZM2494.4 403C2496.6 404.7 2502.3 405.5 2511.4 405.5C2520.5 405.5 2528.1 407.9 2534.2 412.6C2540.3 417.3 2543.3 427 2543.3 441.7C2543.3 456.4 2540 466.1 2533.5 471C2527 475.8 2517.9 478.3 2506.3 478.3C2447.6 478.3 2418.3 449.2 2418.3 391.1L2417.9 193.1C2417.9 186.7 2418.1 182 2418.5 178.8C2418.9 175.6 2420.2 172 2422.4 167.8C2426.6 160.6 2437.3 157 2454.8 157C2471.7 157 2482.2 160.9 2486.4 168.6C2489.4 174.7 2491 183 2491 193.5V392.8C2491.1 397.9 2492.2 401.4 2494.4 403Z" fill="#1E2744"/>
</svg>
