<svg fill="none" height="640" viewBox="0 0 2544 640" width="2544" xmlns="http://www.w3.org/2000/svg"><path d="m320 610.9c160.659 0 290.9-130.24 290.9-290.9s-130.241-290.8999-290.9-290.8999c-160.66 0-290.9004 130.2399-290.9004 290.8999s130.2404 290.9 290.9004 290.9z" fill="#33a9ff"/><path d="m475.2 593.4c-139.1 80.3-308.4 47.5-378.2-73.3 0 0 3-18.2 47.8-27.6 9.8-2.1 47-4.9 73.5-35.9 5.3-6.2 9.8-28.4 57.4-37.3 41.4-7.8 38.5-.2 68.1-36 20.7-25 26-40.9 62.1-47.5 26.1-4.7 43.3-1.1 60.9-26.4 11.9-17 21.5-38.7 64.1-44 51.9-6.5 70-36.1 70-36.1 69.7 120.7 13.5 283.8-125.7 364.1z" fill="#fff"/><path d="m401.476 416.373c23.435-13.531 39.927-28.843 36.834-34.2-3.093-5.356-24.599 1.27-48.034 14.801-23.436 13.531-39.927 28.843-36.834 34.199 3.093 5.357 24.598-1.27 48.034-14.8z" fill="#b1c6dd"/><path d="m634 257.9c-28.9-147-158.5-257.9-314-257.9-176.7 0-320 143.3-320 320 0 94.5 41 179.5 106.2 238 56.7 51 131.6 82 213.8 82 176.7 0 320-143.3 320-320 0-21.2-2.1-42-6-62.1zm-314 350.1c-70.3 0-134.8-25.2-184.8-67.1-63.1-52.8-103.2-132.2-103.2-220.9 0-159.1 128.9-288 288-288 143.7 0 262.8 105.2 284.5 242.8 2.3 14.7 3.5 29.8 3.5 45.2 0 159.1-128.9 288-288 288z" fill="#fff"/><path d="m234.6 404.9c8.34 0 15.1-6.761 15.1-15.1 0-8.34-6.76-15.1-15.1-15.1-8.339 0-15.1 6.76-15.1 15.1 0 8.339 6.761 15.1 15.1 15.1z" fill="#fff"/><path d="m246.8 393.3c-3.4 7.6-12.3 11-19.9 7.6-2.4-1.1-4.4-2.7-5.9-4.7 1.5 3.1 4 5.7 7.4 7.3 7.6 3.4 16.5 0 19.9-7.6 2.3-5.2 1.5-11-1.7-15.3 1.9 3.9 2.1 8.5.2 12.7z" fill="#c7d8ef"/><path d="m224 450.3c3.866 0 7-3.134 7-7s-3.134-7-7-7-7 3.134-7 7 3.134 7 7 7z" fill="#fff"/><path d="m229.699 445c-1.6 3.5-5.8 5.1-9.3 3.4-1.1-.5-2-1.3-2.7-2.2.7 1.5 1.8 2.7 3.4 3.4 3.5 1.6 7.7.1 9.3-3.4 1.1-2.4.8-5.1-.7-7.1.8 1.8.9 4 0 5.9z" fill="#c7d8ef"/><path d="m155.699 478.3c3.866 0 7-3.134 7-7s-3.134-7-7-7-7 3.134-7 7 3.134 7 7 7z" fill="#fff"/><path d="m161.499 472.1c-1.1 3.7-5 5.9-8.7 4.8-1.2-.3-2.2-1-3-1.8.9 1.3 2.2 2.4 3.9 2.9 3.7 1.1 7.6-1.1 8.7-4.8.7-2.5 0-5.2-1.8-6.9 1.1 1.7 1.5 3.8.9 5.8z" fill="#c7d8ef"/><path d="m116.1 453.8c1.933 0 3.5-1.567 3.5-3.5s-1.567-3.5-3.5-3.5-3.5 1.567-3.5 3.5 1.567 3.5 3.5 3.5z" fill="#fff"/><path d="m119 450.8c-.6 1.9-2.5 2.9-4.4 2.3-.6-.2-1.1-.5-1.5-.9.4.7 1.1 1.2 1.9 1.5 1.9.6 3.8-.5 4.4-2.3.4-1.3 0-2.6-.8-3.5.5.8.7 1.8.4 2.9z" fill="#c7d8ef"/><path d="m189.5 429.1c3.866 0 7-3.134 7-7s-3.134-7-7-7-7 3.134-7 7 3.134 7 7 7z" fill="#fff"/><path d="m195.399 422.8c-1 3.8-4.8 6-8.6 5-1.2-.3-2.2-.9-3.1-1.7.9 1.3 2.3 2.3 4 2.8 3.8 1 7.6-1.3 8.6-5 .7-2.6-.2-5.2-2-6.9 1.2 1.6 1.6 3.7 1.1 5.8z" fill="#c7d8ef"/><path d="m137.3 438.2c-.5 0-.9-.2-1.3-.6-.6-.7-.4-1.7.3-2.2l78.1-62.1c.7-.6 1.7-.4 2.2.3.6.7.4 1.7-.3 2.2l-78.1 62.1c-.2.2-.6.3-.9.3z" fill="#fff"/><path d="m119.2 402.5c-.5 0-.9-.2-1.3-.6-.6-.7-.4-1.7.3-2.2l78.1-62.1c.7-.6 1.7-.4 2.2.3.6.7.4 1.7-.3 2.2l-78.1 62.1c-.2.2-.5.3-.9.3z" fill="#fff"/><path d="m175.801 382.3c-.2 0-.5-.1-.6-.3-.3-.3-.2-.8.1-1.1l29.2-23.2c.3-.3.8-.2 1.1.1s.2.8-.1 1.1l-29.2 23.2c-.2.1-.3.2-.5.2z" fill="#fff"/><path d="m168.699 463.3c-.2 0-.5-.1-.6-.3-.3-.3-.2-.8.1-1.1l29.2-23.2c.3-.3.8-.2 1.1.1s.2.8-.1 1.1l-29.2 23.2c-.1.2-.3.2-.5.2z" fill="#fff"/><path d="m166 340c-.2 0-.5-.1-.6-.3-.3-.3-.2-.8.1-1.1l21.8-17.4c.3-.3.8-.2 1.1.1s.2.8-.1 1.1l-21.8 17.4c-.2.2-.3.2-.5.2z" fill="#fff"/><path d="m311.301 385.7c61.856 0 112-50.144 112-112s-50.144-112-112-112-112 50.144-112 112 50.144 112 112 112z" fill="#fff"/><path d="m395.1 199.5c17.5 19.8 28.1 45.7 28.1 74.2 0 61.9-50.1 112-112 112-37.7 0-71-18.6-91.3-47.1 20.5 23.1 50.5 37.7 83.8 37.7 61.9 0 112-50.1 112-112 .1-24.1-7.6-46.5-20.6-64.8z" fill="#c7d8ef"/><g fill="#fff"><path d="m754.2 436.2c-7.2-8.9-10.8-16.8-10.8-23.9s5.9-16.4 17.8-28c6.9-6.6 14.3-10 22-10s18.5 6.9 32.4 20.8c3.9 4.7 9.4 9.2 16.6 13.5s13.8 6.4 19.9 6.4c25.7 0 38.6-10.5 38.6-31.6 0-6.4-3.5-11.7-10.6-16s-15.8-7.4-26.4-9.3c-10.5-1.9-21.9-5-34-9.3-12.2-4.3-23.5-9.3-34-15.2-10.5-5.8-19.3-15-26.4-27.6s-10.6-27.7-10.6-45.5c0-24.3 9.1-45.6 27.2-63.7s42.8-27.2 74.1-27.2c16.6 0 31.8 2.1 45.5 6.4s23.2 8.7 28.4 13.1l10.4 7.9c8.6 8 12.9 14.8 12.9 20.3s-3.3 13.1-10 22.8c-9.4 13.8-19.1 20.8-29.1 20.8-5.8 0-13-2.8-21.6-8.3-.8-.6-2.4-1.9-4.8-4.2-2.4-2.2-4.5-4-6.4-5.4-5.8-3.6-13.2-5.4-22.2-5.4s-16.5 2.1-22.4 6.4c-6 4.3-8.9 10.2-8.9 17.9 0 7.6 3.5 13.8 10.6 18.5s15.8 7.9 26.4 9.5c10.5 1.7 22 4.2 34.5 7.7s23.9 7.7 34.5 12.7c10.5 5 19.3 13.6 26.4 25.9s10.6 27.5 10.6 45.5-3.6 33.8-10.8 47.5-16.6 24.3-28.2 31.8c-22.4 14.7-46.4 22-71.8 22-13 0-25.3-1.6-36.9-4.8s-21-7.1-28.2-11.8c-14.7-8.9-24.9-17.4-30.7-25.7z"/><path d="m1113.3 260.2c27.7 0 50.7 10.6 69.1 31.8s27.6 47 27.6 77.4v73.1c0 6.4-.2 11.1-.6 14.3s-1.6 6.7-3.5 10.6c-3.9 7.5-14.7 11.2-32.4 11.2-19.7 0-31-5.1-34-15.4-1.7-4.7-2.5-11.8-2.5-21.2v-73c0-11.3-3.3-20.2-9.8-26.6s-15.2-9.5-26.2-9.5c-10.9 0-19.8 3.3-26.6 10-6.8 6.6-10.2 15.4-10.2 26.2v73.5c0 6.4-.2 11.1-.6 14.3s-1.7 6.7-3.9 10.6c-3.6 7.5-14.3 11.2-32 11.2-17.4 0-28.1-3.7-32-11.2-1.9-4.2-3.1-7.8-3.5-11s-.6-8-.6-14.3v-147c0-6.1.2-10.7.6-13.9s1.7-6.7 3.9-10.6c3.9-6.9 14.5-10.4 32-10.4 16.9 0 27.3 3.2 31.1 9.5 2.8 4.7 4.2 10.4 4.2 17 1.1-1.9 3.6-4.7 7.5-8.3s7.6-6.5 11.2-8.7c9.4-6.4 19.8-9.6 31.2-9.6z"/><path d="m1271.8 287.6c23.2-21.6 49.8-32.4 79.7-32.4s56.3 10.7 79.3 32.2c23 21.4 34.5 48.8 34.5 82 0 23-6 43.4-17.8 61.2-11.9 17.8-26.4 31-43.4 39.4s-34.7 12.7-52.9 12.7c-18.3 0-36-4.5-53.1-13.5-17.2-9-31.6-22.3-43.4-39.9s-17.6-37.4-17.6-59.6c-.1-33.1 11.5-60.5 34.7-82.1zm51.9 111.9c8.9 6.8 17.9 10.2 27 10.2s18.3-3.5 27.4-10.4 13.7-17.2 13.7-30.7c0-13.6-4.3-23.7-12.9-30.3s-17.9-10-27.8-10c-10 0-19.2 3.5-27.8 10.4s-12.9 17.1-12.9 30.5 4.5 23.5 13.3 30.3z"/><path d="m1763.8 261.9c17.7 7.8 26.6 17.3 26.6 28.6 0 4.7-2.2 12.2-6.6 22.6s-8.2 19.4-11.2 27.2l-45.7 111.3c-4.2 12.2-11.1 20.8-20.8 25.7-4.2 1.9-9.4 2.9-15.8 2.9s-12.5-2.4-18.5-7.3c-6-4.8-9.9-9.8-11.8-14.7l-3.3-7.1c-2.2-5.5-10.4-27.1-24.5-64.8-2.8 6.6-6.9 17.5-12.2 32.6-5.4 15.1-8.9 24.5-10.4 28.2s-2.5 6.2-2.9 7.5c-.4 1.2-1.6 3.5-3.5 6.9-1.9 3.3-4.2 6.2-6.6 8.7-6.6 6.6-14.3 10-22.8 10-8.6 0-15.8-2.4-21.6-7.3-5.8-4.8-9.7-9.8-11.6-14.7l-62.7-152.8c-2.8-8.3-4.2-13.7-4.2-16.2 0-11.1 7.9-19.8 23.7-26.2 8.9-3.6 16-5.4 21.6-5.4 5.5 0 10 1.2 13.5 3.5 3.5 2.4 5.9 4.7 7.3 7.1s2.5 4.8 3.3 7.3c4.7 11.1 14.5 37.1 29.5 78l24.5-67.3c1.7-5.5 4.7-10.4 9.1-14.5 8-8 16.2-12 24.5-12s15.4 2.2 21.4 6.6c5.9 4.4 10 8.9 12.2 13.3l3.3 7.1c13.8 38.8 22 60.9 24.5 66.4l25.3-68.9c6.6-17.7 16.6-26.6 29.9-26.6 5.1.1 10.6 1.5 16.5 4.3z"/><path d="m1933.1 260.6c24.6 0 47.3 10.9 67.9 32.8s30.9 47.3 30.9 76.2-10.2 54.2-30.7 76c-20.5 21.7-42.5 32.6-66 32.6s-40.3-6.6-50.2-19.9c-2.2 13.6-14.1 20.3-35.7 20.3-17.4 0-28.1-3.7-32-11.2-1.9-4.2-3.1-7.8-3.5-11s-.6-8-.6-14.3v-247.9c0-6.4.2-11.1.6-14.3s1.6-6.7 3.5-10.6c3.9-7.5 14.7-11.2 32.4-11.2 17.4 0 28 3.7 31.6 11.2 2.2 4.2 3.5 7.8 3.9 11s.6 8 .6 14.3v86.4c11.1-13.6 26.8-20.4 47.3-20.4zm-36.3 134.1c6.8 7.5 15.3 11.2 25.5 11.2s19-3.7 26.2-11.2 10.8-15.8 10.8-24.9-3.3-17.5-10-25.1c-6.6-7.6-15.5-11.4-26.6-11.4s-19.9 3.9-26.4 11.6c-6.5 7.8-9.8 16.1-9.8 25.1.1 9 3.5 17.3 10.3 24.7z"/><path d="m2200.9 283.5c1.7-15.5 12.6-23.2 32.8-23.2 10.8 0 18.8.8 24.1 2.5s8.9 4.6 11 8.7c2.1 4.2 3.3 7.8 3.7 11s.6 8 .6 14.3v145.2c0 6.4-.2 11.1-.6 14.3s-1.6 6.8-3.5 11c-3.9 7.2-13.4 10.8-28.4 10.8-15.1 0-25.2-1.9-30.3-5.6s-8.1-9.2-8.9-16.4c-10.2 14.7-27.3 22-51.3 22-23.9 0-46.2-10.9-66.6-32.8-20.5-21.9-30.7-47.3-30.7-76.2s10.3-54.2 30.9-76c20.6-21.7 43.2-32.6 67.9-32.6 9.4 0 18 1.7 25.7 5s13.1 6.4 16.2 9.3c3 3.1 5.5 5.9 7.4 8.7zm-75.6 86.3c0 9.1 3.6 17.4 10.8 24.7s15.9 11 26.2 11c10.2 0 18.7-3.7 25.5-11.2s10.2-15.7 10.2-24.7-3.3-17.4-9.8-25.1-15.2-11.6-26.2-11.6c-10.9 0-19.8 3.9-26.6 11.6-6.7 7.7-10.1 16.2-10.1 25.3z"/><path d="m2382.7 405.5c9.1 0 15.9 2.4 20.3 7.1s6.6 14.4 6.6 29.1-2.4 24.4-7.1 29.3c-4.7 4.8-11.5 7.3-20.3 7.3-28 0-47.6-6.7-58.9-20.1-11.4-13.4-17-35.8-17-67v-198.2c0-6.4.2-11.1.6-14.3s1.6-6.8 3.5-11c3.9-7.2 14.7-10.8 32.4-10.8 16.9 0 27.4 3.9 31.6 11.6 2.2 3.9 3.5 7.4 3.9 10.6s.6 8 .6 14.3v199.3c.1 8.5 1.3 12.8 3.8 12.8zm111.7-2.5c2.2 1.7 7.9 2.5 17 2.5s16.7 2.4 22.8 7.1 9.1 14.4 9.1 29.1-3.3 24.4-9.8 29.3c-6.5 4.8-15.6 7.3-27.2 7.3-58.7 0-88-29.1-88-87.2l-.4-198c0-6.4.2-11.1.6-14.3s1.7-6.8 3.9-11c4.2-7.2 14.9-10.8 32.4-10.8 16.9 0 27.4 3.9 31.6 11.6 3 6.1 4.6 14.4 4.6 24.9v199.3c.1 5.1 1.2 8.6 3.4 10.2z"/></g></svg>