<svg width="222" height="48" viewBox="0 0 222 48" fill="none" xmlns="http://www.w3.org/2000/svg">
<g clip-path="url(#clip0)">
<path d="M66.6603 38.2001C65.5403 38.2001 64.4703 38.0601 63.4703 37.7901C62.4903 37.5201 61.6903 37.1901 61.1003 36.8001L61.0803 36.7801C59.8303 36.0301 58.9703 35.3101 58.5003 34.6401L58.4803 34.6201L58.1203 34.1801C57.5903 33.5301 57.3103 32.9401 57.3103 32.4901C57.3103 32.3401 57.4103 31.7501 58.7103 30.4901C59.1903 30.0301 59.6703 29.8001 60.1703 29.8001C60.3403 29.8001 61.0203 29.9201 62.5603 31.4501C62.9703 31.9401 63.5503 32.4101 64.2703 32.8401C65.0503 33.3101 65.8103 33.5401 66.5103 33.5401C68.1303 33.5401 70.8603 33.0601 70.8603 29.8401C70.8603 29.2301 70.6203 28.3701 69.5003 27.6901C68.7703 27.2501 67.8603 26.9201 66.8103 26.7301C65.8903 26.5601 64.8803 26.2801 63.8003 25.9001C62.7303 25.5201 61.7203 25.0701 60.7903 24.5601C59.9603 24.1001 59.2503 23.3501 58.6803 22.3301C58.1003 21.3001 57.8103 20.0201 57.8103 18.5401C57.8103 16.5001 58.5503 14.7701 60.0803 13.2501C61.6003 11.7301 63.6503 10.9801 66.3303 10.9801C67.7703 10.9801 69.0903 11.1701 70.2703 11.5401C71.7003 11.9901 72.3303 12.3601 72.6103 12.5901L72.6303 12.6001L73.5703 13.3101C74.4303 14.1201 74.4703 14.5001 74.4703 14.5701C74.4703 14.7201 74.3903 15.2001 73.6903 16.2201C72.9903 17.2601 72.3103 17.7801 71.6803 17.7801C71.4203 17.7801 70.9503 17.6701 70.1403 17.1501C70.1203 17.1401 70.0403 17.0701 69.8103 16.8501C69.5703 16.6201 69.3403 16.4301 69.1403 16.2901L69.1203 16.2701L69.1003 16.2601C68.4403 15.8501 67.6103 15.6401 66.6403 15.6401C65.6503 15.6401 64.8003 15.8901 64.1103 16.3801C63.3603 16.9201 62.9603 17.7201 62.9603 18.6701C62.9603 19.6401 63.4203 20.4501 64.2903 21.0301C65.0303 21.5201 65.9503 21.8601 67.0303 22.0301C67.9603 22.1801 69.0003 22.4101 70.1103 22.7201C71.2103 23.0201 72.2303 23.4001 73.1503 23.8401C73.9603 24.2201 74.6603 24.9201 75.2203 25.9001C75.8003 26.9001 76.0903 28.1801 76.0903 29.6801C76.0903 31.1901 75.7903 32.5401 75.1903 33.6801C74.6003 34.8101 73.8203 35.6901 72.8703 36.3001C70.9003 37.5601 68.8303 38.2001 66.6603 38.2001Z" fill="#162A46"/>
<path d="M66.3102 11.7801C67.6702 11.7801 68.9102 11.9501 70.0102 12.3001C71.4402 12.7501 71.9302 13.0801 72.0702 13.2001L72.1002 13.2301L72.1302 13.2501L73.0202 13.9201C73.4102 14.2901 73.5602 14.5201 73.6202 14.6301C73.5802 14.7701 73.4402 15.1201 73.0002 15.7701C72.3902 16.6601 71.9102 16.9801 71.6502 16.9801C71.6402 16.9801 71.3202 16.9701 70.5802 16.5001C70.5502 16.4701 70.4702 16.4101 70.3302 16.2701C70.0702 16.0201 69.8102 15.8101 69.5802 15.6401L69.5402 15.6101L69.4902 15.5801C68.7002 15.0901 67.7302 14.8401 66.6102 14.8401C65.4402 14.8401 64.4402 15.1401 63.6102 15.7301C62.6402 16.4301 62.1302 17.4501 62.1302 18.6701C62.1302 19.9001 62.7302 20.9801 63.8202 21.7001C64.6602 22.2601 65.6902 22.6401 66.8802 22.8301C67.7802 22.9701 68.7902 23.2001 69.8702 23.5001C70.9202 23.7901 71.9002 24.1501 72.7802 24.5701C73.4502 24.8901 74.0102 25.4601 74.5002 26.3101C75.0102 27.1901 75.2602 28.3301 75.2602 29.6901C75.2602 31.0701 74.9902 32.2901 74.4502 33.3201C73.9102 34.3401 73.2402 35.1001 72.4102 35.6401H72.4002H72.3902C70.5702 36.8201 68.7002 37.4001 66.6602 37.4001C65.6102 37.4001 64.6102 37.2701 63.6802 37.0201C62.7802 36.7701 62.0602 36.48 61.5402 36.14L61.5202 36.1201L61.4902 36.1001C60.0602 35.2401 59.4302 34.5801 59.1502 34.1901L59.1202 34.1401L59.0802 34.0901L58.7402 33.6701C58.2002 33.0101 58.1202 32.6401 58.1102 32.5201C58.1402 32.4201 58.3202 31.9801 59.2602 31.0601C59.7102 30.6301 60.0202 30.6001 60.1402 30.5901C60.2302 30.6101 60.7602 30.7901 61.9602 31.9801C62.4302 32.5401 63.0502 33.0401 63.8502 33.5101C64.7602 34.0501 65.6502 34.3301 66.5002 34.3301C68.0602 34.3301 69.2902 33.9601 70.1702 33.2401C70.8402 32.6901 71.6402 31.6501 71.6402 29.8301C71.6402 29.1701 71.4102 27.9201 69.9002 26.9901C69.0902 26.5001 68.0902 26.1401 66.9302 25.9301C66.0502 25.7701 65.0802 25.5001 64.0402 25.1401C63.0102 24.7801 62.0402 24.3501 61.1502 23.8601C60.4402 23.4701 59.8502 22.8401 59.3502 21.9401C58.8402 21.0301 58.5802 19.8901 58.5802 18.5401C58.5802 16.7301 59.2402 15.1801 60.6102 13.8101C62.0002 12.4501 63.8602 11.7801 66.3102 11.7801ZM66.3102 10.1801C63.4302 10.1801 61.1602 11.0101 59.5002 12.6801C57.8302 14.3501 57.0002 16.3001 57.0002 18.5401C57.0002 20.1701 57.3202 21.5601 57.9702 22.7201C58.6202 23.8801 59.4302 24.7201 60.3902 25.2601C61.3602 25.7901 62.4002 26.2601 63.5202 26.6501C64.6402 27.0401 65.6802 27.3301 66.6502 27.5101C67.6202 27.6901 68.4202 27.9701 69.0702 28.3701C69.7202 28.7601 70.0402 29.2501 70.0402 29.8401C70.0402 31.7701 68.8602 32.7401 66.4902 32.7401C65.9302 32.7401 65.3202 32.5401 64.6602 32.1501C64.0002 31.7601 63.4902 31.3401 63.1302 30.9101C61.8602 29.6401 60.8602 29.0001 60.1502 29.0001C59.4402 29.0001 58.7602 29.3101 58.1302 29.9201C57.0402 30.9901 56.4902 31.8501 56.4902 32.5001C56.4902 33.1501 56.8202 33.8801 57.4802 34.6901L57.8202 35.1101C58.3502 35.8701 59.3002 36.6601 60.6402 37.4801C61.3002 37.9101 62.1702 38.2801 63.2402 38.5701C64.3102 38.8601 65.4402 39.01 66.6402 39.01C68.9802 39.01 71.1802 38.34 73.2402 36.99C74.3102 36.3 75.1702 35.3301 75.8402 34.0701C76.5002 32.8101 76.8302 31.3501 76.8302 29.7001C76.8302 28.0501 76.5102 26.6501 75.8602 25.5201C75.2102 24.3901 74.4002 23.5901 73.4402 23.1301C72.4702 22.6701 71.4202 22.2801 70.2702 21.9701C69.1202 21.6501 68.0702 21.4201 67.1002 21.2601C66.1302 21.1101 65.3302 20.8201 64.6802 20.3801C64.0302 19.9501 63.7102 19.3801 63.7102 18.6801C63.7102 17.9801 63.9802 17.4301 64.5302 17.0401C65.0802 16.6501 65.7602 16.4501 66.5902 16.4501C67.4202 16.4501 68.1002 16.6201 68.6302 16.9501C68.8102 17.0801 69.0102 17.2401 69.2202 17.4501C69.4402 17.6501 69.5802 17.7801 69.6602 17.8301C70.4502 18.3401 71.1102 18.5901 71.6402 18.5901C72.5602 18.5901 73.4502 17.9501 74.3102 16.6801C74.9202 15.7901 75.2302 15.0901 75.2302 14.5801C75.2302 14.0701 74.8302 13.4501 74.0502 12.7101L73.1002 11.9801C72.6202 11.5701 71.7502 11.1701 70.4902 10.7801C69.2302 10.3801 67.8402 10.1801 66.3102 10.1801Z" fill="#162A46"/>
<path d="M96.0504 37.78C95.0904 37.78 93.8904 37.63 93.6904 36.94L93.6804 36.92L93.6704 36.9C93.5904 36.66 93.4904 36.18 93.4904 35.22V28.5C93.4904 27.24 93.1104 26.22 92.3504 25.49C91.6004 24.76 90.6004 24.38 89.3904 24.38C88.1704 24.38 87.1604 24.77 86.3904 25.52C85.6104 26.28 85.2104 27.28 85.2104 28.5V35.26C85.2104 35.81 85.1904 36.2201 85.1604 36.4701C85.1404 36.66 85.0404 36.89 84.9004 37.15L84.8904 37.17L84.8804 37.2C84.8104 37.34 84.4604 37.78 82.6604 37.78C81.4704 37.78 80.6404 37.56 80.4404 37.19C80.3004 36.89 80.2204 36.64 80.1904 36.43C80.1604 36.17 80.1404 35.7701 80.1404 35.22V21.71C80.1404 21.19 80.1604 20.79 80.1904 20.53C80.2104 20.35 80.3104 20.11 80.4504 19.85C80.6004 19.58 81.2704 19.3 82.6904 19.3C84.4504 19.3 84.8104 19.7 84.8704 19.79C85.0504 20.1 85.1404 20.48 85.1404 20.94V23.96L86.6304 21.34C86.6404 21.32 86.7304 21.17 87.1704 20.77C87.4904 20.48 87.7904 20.24 88.0804 20.06L88.0904 20.05L88.1004 20.04C88.8404 19.54 89.6304 19.3 90.5104 19.3C92.8304 19.3 94.7104 20.17 96.2604 21.94C97.8404 23.75 98.6004 25.91 98.6004 28.53V35.25C98.6004 35.8 98.5804 36.2101 98.5504 36.4601C98.5204 36.66 98.4404 36.9001 98.3104 37.17C98.1104 37.5601 97.2704 37.78 96.0504 37.78Z" fill="#162A46"/>
<path d="M90.5103 20.1C92.5903 20.1 94.2703 20.88 95.6603 22.47C97.1003 24.13 97.8103 26.12 97.8103 28.54V35.26C97.8103 35.93 97.7803 36.24 97.7703 36.37C97.7603 36.42 97.7403 36.54 97.6403 36.75C97.5303 36.81 97.1203 36.98 96.0503 36.98C94.8703 36.98 94.5103 36.75 94.4503 36.7L94.4403 36.67L94.4303 36.63C94.4003 36.54 94.2903 36.17 94.2903 35.22V28.5C94.2903 27.02 93.8303 25.81 92.9103 24.91C92.0103 24.02 90.8203 23.58 89.3903 23.58C87.9603 23.58 86.7603 24.04 85.8303 24.95C84.9003 25.86 84.4103 27.08 84.4103 28.5V35.26C84.4103 35.93 84.3803 36.24 84.3703 36.37C84.3703 36.38 84.3503 36.5 84.2003 36.76V36.77C84.0903 36.83 83.6903 36.99 82.6503 36.99C81.6203 36.99 81.2203 36.83 81.1103 36.77C81.0103 36.53 80.9803 36.4 80.9703 36.35C80.9503 36.22 80.9303 35.91 80.9303 35.24V21.71C80.9303 21.1 80.9503 20.79 80.9703 20.64C80.9703 20.63 80.9903 20.53 81.1003 20.32C81.2203 20.26 81.6303 20.1 82.6903 20.1C83.6703 20.1 84.0903 20.23 84.2303 20.29C84.3003 20.46 84.3403 20.68 84.3403 20.94V26.97L87.3103 21.76C87.3403 21.73 87.4403 21.6 87.7103 21.35C87.9903 21.09 88.2503 20.89 88.4903 20.74L88.5203 20.72L88.5503 20.7C89.1503 20.3 89.7903 20.1 90.5103 20.1ZM90.5103 18.5C89.4703 18.5 88.5103 18.79 87.6503 19.38C87.3203 19.58 86.9803 19.85 86.6203 20.18C86.2603 20.51 86.0303 20.77 85.9303 20.94C85.9303 20.33 85.8003 19.81 85.5503 19.38C85.1903 18.79 84.2403 18.5 82.6903 18.5C81.0903 18.5 80.1103 18.82 79.7503 19.45C79.5503 19.81 79.4303 20.13 79.3903 20.42C79.3503 20.71 79.3303 21.14 79.3303 21.7V35.21C79.3303 35.8 79.3503 36.23 79.3903 36.53C79.4303 36.82 79.5403 37.16 79.7103 37.54C80.0703 38.23 81.0503 38.57 82.6503 38.57C84.2803 38.57 85.2603 38.23 85.5903 37.54C85.7903 37.18 85.9103 36.86 85.9503 36.57C85.9903 36.28 86.0103 35.84 86.0103 35.25V28.5C86.0103 27.51 86.3203 26.71 86.9503 26.1C87.5703 25.49 88.3903 25.18 89.3903 25.18C90.3903 25.18 91.2003 25.47 91.7903 26.06C92.3903 26.65 92.6903 27.46 92.6903 28.5V35.22C92.6903 36.09 92.7703 36.73 92.9203 37.17C93.2003 38.11 94.2403 38.58 96.0503 38.58C97.6803 38.58 98.6703 38.24 99.0303 37.55C99.2103 37.19 99.3203 36.87 99.3503 36.58C99.3903 36.29 99.4103 35.85 99.4103 35.26V28.54C99.4103 25.74 98.5603 23.37 96.8703 21.42C95.1703 19.48 93.0603 18.5 90.5103 18.5Z" fill="#162A46"/>
<path d="M112.38 38.1601C110.84 38.1601 109.32 37.7701 107.87 37.0101C106.42 36.2501 105.18 35.1101 104.17 33.6101C103.18 32.1401 102.68 30.4401 102.68 28.5801C102.68 25.7301 103.65 23.4501 105.63 21.6101C107.63 19.7501 109.85 18.8501 112.41 18.8501C114.97 18.8501 117.18 19.7501 119.15 21.5901C121.11 23.4201 122.06 25.7001 122.06 28.5401C122.06 30.4801 121.55 32.2301 120.55 33.7301C119.54 35.2501 118.3 36.3701 116.87 37.0801C115.45 37.8001 113.93 38.1601 112.38 38.1601ZM112.38 23.9601C111.28 23.9601 110.25 24.3401 109.32 25.0901C108.34 25.8801 107.84 27.0401 107.84 28.5201C107.84 30.0101 108.36 31.1601 109.37 31.9401C110.32 32.6701 111.32 33.0401 112.34 33.0401C113.35 33.0401 114.36 32.6601 115.34 31.9201C116.39 31.1301 116.92 29.9601 116.92 28.4601C116.92 26.9601 116.42 25.8101 115.43 25.0401C114.5 24.3301 113.47 23.9601 112.38 23.9601Z" fill="#162A46"/>
<path d="M112.42 19.65C114.77 19.65 116.8 20.48 118.62 22.18C120.41 23.85 121.28 25.93 121.28 28.55C121.28 30.36 120.83 31.91 119.91 33.29C118.98 34.69 117.84 35.7201 116.54 36.3701C115.21 37.0301 113.81 37.3701 112.38 37.3701C110.95 37.3701 109.59 37.0201 108.24 36.31C106.89 35.6 105.78 34.58 104.84 33.1701C103.93 31.8101 103.49 30.31 103.49 28.58C103.49 25.97 104.37 23.88 106.18 22.2C108.03 20.48 110.07 19.65 112.42 19.65ZM112.34 33.84C113.53 33.84 114.71 33.41 115.83 32.5601C116.69 31.91 117.72 30.66 117.72 28.46C117.72 26.2701 116.74 25.05 115.92 24.41C114.85 23.58 113.66 23.16 112.38 23.16C111.09 23.16 109.9 23.6 108.82 24.47C108.01 25.12 107.04 26.3601 107.04 28.5201C107.04 30.7001 108.05 31.93 108.89 32.58C109.98 33.42 111.15 33.84 112.34 33.84ZM112.42 18.05C109.67 18.05 107.23 19.04 105.09 21.03C102.95 23.01 101.88 25.53 101.88 28.59C101.88 30.63 102.42 32.4501 103.5 34.0701C104.58 35.6901 105.91 36.91 107.49 37.73C109.07 38.56 110.7 38.9701 112.38 38.9701C114.06 38.9701 115.68 38.58 117.25 37.81C118.81 37.0301 120.14 35.83 121.24 34.18C122.33 32.54 122.88 30.66 122.88 28.55C122.88 25.5 121.82 22.98 119.71 21.01C117.6 19.03 115.17 18.05 112.42 18.05ZM112.34 32.24C111.5 32.24 110.67 31.93 109.86 31.3C109.05 30.68 108.64 29.75 108.64 28.51C108.64 27.28 109.03 26.34 109.82 25.7C110.61 25.06 111.46 24.75 112.38 24.75C113.3 24.75 114.15 25.0601 114.94 25.6701C115.73 26.2801 116.12 27.21 116.12 28.46C116.12 29.71 115.7 30.65 114.86 31.28C114.02 31.93 113.18 32.24 112.34 32.24Z" fill="#162A46"/>
<path d="M143.57 37.9301C143.17 37.9301 142.78 37.7701 142.38 37.4401C141.94 37.0901 141.66 36.7401 141.53 36.4201L141.52 36.3901L141.21 35.7401C141 35.2201 140.29 33.3401 138.97 29.8201L138.26 27.9301L137.48 29.8001C137.22 30.4201 136.84 31.4401 136.34 32.8301C135.73 34.5301 135.49 35.1601 135.4 35.3901C135.25 35.7501 135.16 35.9901 135.12 36.1201C135.12 36.1301 135.07 36.2401 134.86 36.6001C134.72 36.8401 134.55 37.0601 134.38 37.2401C133.92 37.7001 133.42 37.9201 132.85 37.9201C132.25 37.9201 131.77 37.7601 131.38 37.4401C130.95 37.0801 130.67 36.7401 130.55 36.4101L124.79 22.3701C124.48 21.4301 124.46 21.1801 124.46 21.1601C124.46 20.9201 124.46 20.1801 126.14 19.5001C127.03 19.1401 127.55 19.0601 127.83 19.0601C128.17 19.0601 128.44 19.1201 128.62 19.2501C128.9 19.4401 129.01 19.5801 129.05 19.6401C129.15 19.8101 129.23 19.9801 129.28 20.1501L129.29 20.1801L129.3 20.2101C129.73 21.2101 130.63 23.6201 131.99 27.3501L132.74 29.4101L135.75 21.1401L135.76 21.1201C135.87 20.7401 136.08 20.4201 136.38 20.1401L136.4 20.1201C136.98 19.5401 137.55 19.2501 138.09 19.2501C138.68 19.2501 139.17 19.4001 139.58 19.7001C140.01 20.0201 140.32 20.3401 140.46 20.6301L140.74 21.2301C142.02 24.8201 142.76 26.8301 143 27.3601L143.8 29.1501L146.8 20.9801C147.52 19.0601 148.48 19.0601 148.8 19.0601C149.16 19.0601 149.56 19.1601 149.98 19.3601L150 19.3701C151.3 19.9401 151.96 20.5801 151.96 21.2701C151.96 21.4201 151.91 21.8801 151.41 23.0401C151.01 23.9801 150.66 24.8301 150.37 25.5601L146.16 35.8101L146.15 35.8301C145.84 36.7501 145.35 37.3701 144.65 37.7401C144.39 37.8701 144.02 37.9301 143.57 37.9301Z" fill="#162A46"/>
<path d="M148.79 19.87C149.03 19.87 149.31 19.95 149.63 20.1L149.65 20.11L149.67 20.12C150.77 20.6 151.15 21.05 151.15 21.28C151.15 21.29 151.13 21.65 150.67 22.74C150.27 23.69 149.91 24.54 149.63 25.27L145.44 35.49L145.42 35.54L145.4 35.59C145.25 36.04 144.97 36.68 144.31 37.03C144.2 37.07 143.98 37.14 143.56 37.14C143.48 37.14 143.25 37.14 142.87 36.83C142.43 36.47 142.3 36.23 142.26 36.14L142.24 36.09L142.22 36.04L141.94 35.43C141.73 34.89 141.02 33.02 139.72 29.55L138.3 25.76L136.74 29.49C136.47 30.13 136.09 31.14 135.58 32.56C134.98 34.24 134.74 34.87 134.65 35.09C134.47 35.53 134.4 35.73 134.36 35.84C134.34 35.87 134.29 35.98 134.16 36.21C134.05 36.4 133.93 36.56 133.8 36.69C133.4 37.09 133.07 37.14 132.83 37.14C132.29 37.14 132.02 36.97 131.87 36.84C131.45 36.49 131.31 36.25 131.27 36.14L131.26 36.13L131.25 36.12L125.51 22.13C125.3 21.5 125.24 21.24 125.23 21.15C125.24 21.08 125.26 21.01 125.36 20.9C125.47 20.78 125.75 20.53 126.41 20.27C127.25 19.93 127.66 19.89 127.79 19.89C128.04 19.89 128.13 19.94 128.13 19.94C128.26 20.03 128.31 20.08 128.33 20.1C128.39 20.21 128.44 20.32 128.48 20.44L128.5 20.5L128.52 20.56C128.94 21.55 129.84 23.94 131.2 27.66L132.7 31.78L134.2 27.66L136.45 21.48L136.47 21.44L136.48 21.4C136.55 21.16 136.68 20.96 136.88 20.77L136.9 20.75L136.92 20.73C137.21 20.44 137.64 20.09 138.04 20.09C138.46 20.09 138.78 20.18 139.05 20.38C139.49 20.71 139.65 20.93 139.7 21.02L139.96 21.57C141.67 26.35 142.08 27.37 142.23 27.72L143.84 31.29L145.19 27.61L147.52 21.28C148.07 19.87 148.6 19.87 148.79 19.87ZM148.79 18.27C147.57 18.27 146.65 19.08 146.04 20.71L143.71 27.05C143.48 26.54 142.73 24.51 141.46 20.94L141.15 20.29C140.95 19.88 140.57 19.48 140.02 19.07C139.47 18.66 138.82 18.46 138.05 18.46C137.29 18.46 136.54 18.83 135.8 19.57C135.39 19.95 135.11 20.4 134.96 20.91L132.71 27.09C131.34 23.32 130.43 20.93 130 19.91C129.92 19.68 129.82 19.46 129.69 19.24C129.56 19.02 129.34 18.81 129.02 18.59C128.7 18.37 128.29 18.27 127.78 18.27C127.27 18.27 126.61 18.44 125.8 18.77C124.35 19.36 123.62 20.16 123.62 21.17C123.62 21.4 123.75 21.9 124 22.66L129.76 36.71C129.94 37.17 130.29 37.62 130.83 38.07C131.36 38.52 132.03 38.74 132.81 38.74C133.6 38.74 134.3 38.43 134.91 37.82C135.14 37.59 135.34 37.32 135.52 37.02C135.7 36.71 135.81 36.5 135.84 36.39C135.88 36.28 135.97 36.05 136.11 35.7C136.25 35.36 136.57 34.49 137.06 33.1C137.56 31.71 137.93 30.71 138.19 30.1C139.49 33.56 140.24 35.55 140.44 36.05L140.75 36.7C140.93 37.16 141.29 37.61 141.84 38.06C142.39 38.51 142.95 38.73 143.54 38.73C144.13 38.73 144.61 38.64 144.99 38.46C145.88 38 146.52 37.21 146.9 36.09L151.1 25.86C151.38 25.15 151.72 24.31 152.13 23.36C152.54 22.41 152.74 21.71 152.74 21.28C152.74 20.24 151.93 19.36 150.3 18.65C149.79 18.4 149.28 18.27 148.79 18.27Z" fill="#162A46"/>
<path d="M158.18 37.7799C156.99 37.7799 156.16 37.5599 155.96 37.1899C155.82 36.8899 155.74 36.6399 155.71 36.4299C155.68 36.1699 155.66 35.7699 155.66 35.2199V12.4399C155.66 11.8899 155.68 11.4799 155.71 11.2299C155.74 11.0299 155.82 10.7899 155.95 10.5199C156.15 10.1499 156.99 9.92993 158.21 9.92993C159.97 9.92993 160.32 10.3699 160.39 10.5099L160.4 10.5199L160.41 10.5299C160.61 10.8999 160.67 11.1399 160.69 11.2699C160.72 11.5299 160.74 11.9299 160.74 12.4799V22.6599L162.16 20.9199C163.03 19.8599 164.25 19.3399 165.89 19.3399C167.94 19.3399 169.79 20.2399 171.55 22.0999C173.32 23.9699 174.18 26.0899 174.18 28.5499C174.18 31.0199 173.33 33.1299 171.57 34.9899C169.83 36.8399 168.03 37.7399 166.08 37.7399C164.17 37.7399 162.86 37.2499 162.1 36.2299L160.97 34.7299L160.67 36.5799C160.62 36.9099 160.48 37.7799 158.18 37.7799ZM164.94 24.4199C163.68 24.4199 162.66 24.8799 161.9 25.7699C161.18 26.6299 160.82 27.5799 160.82 28.5899C160.82 29.6199 161.2 30.5599 161.96 31.3999C162.74 32.2599 163.73 32.6899 164.9 32.6899C166.06 32.6899 167.07 32.2599 167.88 31.4099C168.69 30.5699 169.1 29.6099 169.1 28.5599C169.1 27.5299 168.73 26.5699 167.99 25.7199C167.22 24.8699 166.19 24.4199 164.94 24.4199Z" fill="#162A46"/>
<path d="M158.22 10.71C159.22 10.71 159.62 10.87 159.72 10.92C159.87 11.21 159.89 11.34 159.89 11.35C159.91 11.48 159.93 11.79 159.93 12.46V20.4V24.9L162.77 21.42C163.48 20.55 164.47 20.14 165.88 20.14C167.7 20.14 169.36 20.96 170.96 22.65C172.58 24.37 173.37 26.3 173.37 28.56C173.37 30.82 172.59 32.74 170.98 34.45C169.4 36.13 167.79 36.94 166.08 36.94C164.44 36.94 163.34 36.55 162.74 35.75L160.49 32.75L159.88 36.46C159.86 36.61 159.82 36.66 159.69 36.73C159.52 36.83 159.1 36.99 158.17 36.99C157.14 36.99 156.74 36.83 156.63 36.77C156.53 36.53 156.5 36.4 156.49 36.34C156.47 36.22 156.45 35.91 156.45 35.23V12.44C156.45 11.77 156.48 11.46 156.49 11.33C156.5 11.28 156.52 11.16 156.62 10.95C156.74 10.89 157.15 10.71 158.22 10.71ZM164.9 33.5C166.27 33.5 167.5 32.97 168.46 31.98C169.42 30.99 169.9 29.84 169.9 28.58C169.9 27.35 169.46 26.22 168.59 25.22C167.68 24.17 166.42 23.62 164.94 23.62C163.45 23.62 162.19 24.19 161.29 25.26C160.45 26.27 160.02 27.39 160.02 28.6C160.02 29.83 160.47 30.96 161.37 31.95C162.29 32.96 163.51 33.5 164.9 33.5ZM158.22 9.10999C156.59 9.10999 155.6 9.44999 155.24 10.14C155.06 10.5 154.95 10.82 154.92 11.11C154.88 11.4 154.86 11.84 154.86 12.43V35.22C154.86 35.81 154.88 36.24 154.92 36.54C154.96 36.83 155.07 37.17 155.24 37.55C155.6 38.24 156.58 38.58 158.18 38.58C160.16 38.58 161.26 37.96 161.46 36.71C162.38 37.93 163.92 38.54 166.08 38.54C168.24 38.54 170.27 37.54 172.15 35.54C174.03 33.54 174.97 31.21 174.97 28.56C174.97 25.9 174.02 23.57 172.13 21.56C170.23 19.55 168.15 18.54 165.89 18.54C164.01 18.54 162.56 19.16 161.54 20.41V12.47C161.54 11.88 161.52 11.45 161.48 11.15C161.44 10.86 161.32 10.52 161.12 10.14C160.79 9.45999 159.82 9.10999 158.22 9.10999ZM164.9 31.9C163.96 31.9 163.18 31.56 162.55 30.87C161.93 30.18 161.61 29.43 161.61 28.6C161.61 27.77 161.91 27 162.51 26.29C163.11 25.58 163.92 25.22 164.93 25.22C165.95 25.22 166.76 25.57 167.37 26.27C167.98 26.97 168.29 27.74 168.29 28.58C168.29 29.42 167.96 30.18 167.3 30.87C166.64 31.56 165.84 31.9 164.9 31.9Z" fill="#162A46"/>
<path d="M194.16 37.74C192.52 37.74 191.99 37.49 191.85 37.38C191.56 37.17 191.4 36.87 191.35 36.43L191.11 34.33L189.9 36.06C189.11 37.19 187.78 37.74 185.84 37.74C183.85 37.74 182.04 36.84 180.3 34.98C178.54 33.11 177.69 30.99 177.69 28.52C177.69 26.05 178.55 23.95 180.31 22.09C182.06 20.24 183.92 19.34 185.97 19.34C186.72 19.34 187.41 19.47 188.02 19.73C188.83 20.08 189.15 20.32 189.27 20.43C189.51 20.66 189.71 20.88 189.85 21.09L191.07 22.83L191.3 20.71C191.38 20.01 191.7 19.29 193.52 19.29C194.65 19.29 195.22 19.39 195.49 19.48C195.85 19.59 195.97 19.76 196.03 19.88C196.22 20.25 196.28 20.5 196.3 20.64C196.32 20.82 196.35 21.17 196.35 21.85V35.21C196.35 35.89 196.32 36.25 196.3 36.42C196.27 36.62 196.19 36.87 196.06 37.17C195.85 37.55 195.17 37.74 194.16 37.74ZM186.94 24.38C185.7 24.38 184.67 24.83 183.9 25.72C183.15 26.58 182.77 27.54 182.77 28.58C182.77 29.63 183.18 30.59 183.99 31.41C184.8 32.24 185.8 32.66 186.97 32.66C188.14 32.66 189.13 32.23 189.91 31.37C190.67 30.53 191.05 29.59 191.05 28.56C191.05 27.54 190.69 26.59 189.97 25.74C189.21 24.84 188.19 24.38 186.94 24.38Z" fill="#162A46"/>
<path d="M193.53 20.1C194.65 20.1 195.11 20.21 195.26 20.25C195.3 20.26 195.33 20.27 195.34 20.28C195.48 20.56 195.5 20.7 195.51 20.74C195.53 20.87 195.55 21.18 195.55 21.85V35.21C195.55 35.88 195.52 36.19 195.51 36.32C195.5 36.37 195.48 36.5 195.37 36.74C195.28 36.79 194.95 36.93 194.15 36.93C192.77 36.93 192.35 36.74 192.3 36.71C192.25 36.67 192.17 36.6 192.14 36.32L191.66 32.12L189.24 35.58C189.01 35.91 188.31 36.92 185.84 36.92C184.08 36.92 182.46 36.1 180.88 34.41C179.27 32.69 178.49 30.76 178.49 28.5C178.49 26.25 179.28 24.32 180.89 22.62C182.48 20.94 184.15 20.12 185.97 20.12C186.61 20.12 187.2 20.23 187.71 20.45C188.49 20.78 188.7 20.98 188.72 20.99C188.92 21.18 189.08 21.37 189.2 21.53L191.65 25.02L192.1 20.78C192.14 20.43 192.25 20.35 192.3 20.31C192.41 20.27 192.73 20.1 193.53 20.1ZM186.96 33.46C188.35 33.46 189.57 32.92 190.49 31.9C191.39 30.91 191.84 29.79 191.84 28.55C191.84 27.34 191.41 26.22 190.57 25.21C189.67 24.14 188.41 23.57 186.94 23.57C185.48 23.57 184.22 24.13 183.29 25.18C182.41 26.19 181.96 27.33 181.96 28.56C181.96 29.81 182.46 30.99 183.41 31.95C184.37 32.95 185.6 33.46 186.96 33.46ZM193.53 18.5C191.67 18.5 190.67 19.21 190.51 20.64C190.33 20.39 190.1 20.12 189.82 19.86C189.54 19.59 189.04 19.31 188.33 19C187.62 18.69 186.83 18.54 185.96 18.54C183.7 18.54 181.62 19.54 179.72 21.54C177.82 23.54 176.88 25.87 176.88 28.52C176.88 31.18 177.82 33.51 179.7 35.52C181.58 37.53 183.62 38.54 185.83 38.54C188.03 38.54 189.6 37.87 190.54 36.52C190.62 37.18 190.89 37.68 191.36 38.03C191.83 38.37 192.76 38.55 194.15 38.55C195.54 38.55 196.41 38.22 196.76 37.56C196.94 37.18 197.05 36.84 197.08 36.55C197.12 36.26 197.14 35.82 197.14 35.23V21.86C197.14 21.27 197.12 20.84 197.08 20.54C197.04 20.25 196.93 19.91 196.74 19.53C196.55 19.15 196.21 18.88 195.73 18.73C195.26 18.58 194.52 18.5 193.53 18.5ZM186.96 31.86C186.02 31.86 185.22 31.52 184.56 30.85C183.9 30.18 183.57 29.42 183.57 28.58C183.57 27.74 183.88 26.96 184.51 26.25C185.13 25.54 185.95 25.18 186.95 25.18C187.95 25.18 188.76 25.54 189.35 26.25C189.95 26.96 190.25 27.73 190.25 28.56C190.25 29.39 189.94 30.14 189.31 30.83C188.69 31.52 187.9 31.86 186.96 31.86Z" fill="#162A46"/>
<path d="M218.6 37.74C216.13 37.74 214.28 37.1401 213.09 35.9701C211.91 34.8001 211.3 32.96 211.3 30.53L211.26 12.32C211.26 11.77 211.28 11.36 211.31 11.11C211.33 10.98 211.39 10.74 211.58 10.39C211.69 10.21 212.13 9.81005 213.86 9.81005C215.04 9.81005 215.82 10.04 216.05 10.45C216.27 10.9 216.38 11.54 216.38 12.37V30.69C216.38 31.45 216.58 31.97 217.01 32.28C217.38 32.56 217.97 32.67 219.05 32.67C219.71 32.67 220.24 32.83 220.66 33.15C220.86 33.3 221.19 33.77 221.19 35.19C221.19 36.24 220.99 36.96 220.61 37.24C220.17 37.57 219.49 37.74 218.6 37.74ZM207.19 37.74C204.88 37.74 203.26 37.2101 202.38 36.17C201.47 35.09 201 33.1901 201 30.5201V12.32C201 11.77 201.02 11.36 201.05 11.11C201.08 10.91 201.16 10.65 201.29 10.36C201.38 10.21 201.79 9.80005 203.55 9.80005C204.74 9.80005 205.52 10.03 205.75 10.45L205.76 10.47C205.91 10.73 206 10.97 206.02 11.15C206.05 11.41 206.07 11.81 206.07 12.36V30.68C206.07 31.16 206.11 31.51 206.19 31.79C206.43 32.6 207.03 32.66 207.22 32.66C207.83 32.66 208.26 32.7901 208.51 33.06C208.6 33.16 208.9 33.6 208.9 35.18C208.9 36.71 208.6 37.18 208.48 37.31C208.21 37.6 207.78 37.74 207.19 37.74Z" fill="#162A46"/>
<path d="M213.87 10.6C214.92 10.6 215.29 10.8 215.37 10.85C215.46 11.07 215.59 11.52 215.59 12.36V30.68C215.59 31.69 215.91 32.44 216.54 32.91C217.07 33.31 217.77 33.46 219.07 33.46C219.54 33.46 219.91 33.56 220.18 33.76C220.21 33.8 220.41 34.14 220.41 35.18C220.41 36.32 220.16 36.59 220.16 36.59C219.85 36.82 219.32 36.94 218.62 36.94C216.37 36.94 214.71 36.42 213.68 35.4C212.65 34.38 212.13 32.74 212.13 30.52L212.09 12.32C212.09 11.65 212.12 11.33 212.13 11.21C212.13 11.2 212.15 11.08 212.27 10.84C212.36 10.78 212.77 10.6 213.87 10.6ZM203.56 10.6C204.65 10.6 205.01 10.81 205.07 10.85L205.08 10.86C205.23 11.12 205.24 11.24 205.25 11.25C205.27 11.38 205.29 11.69 205.29 12.36V30.68C205.29 31.24 205.34 31.66 205.44 32.01C205.75 33.08 206.57 33.46 207.23 33.46C207.63 33.46 207.84 33.53 207.91 33.59C207.95 33.68 208.11 34.09 208.11 35.18C208.11 36.31 207.93 36.7 207.9 36.77C207.74 36.91 207.39 36.94 207.19 36.94C205.12 36.94 203.71 36.51 202.99 35.66C202.01 34.5 201.8 32.23 201.8 30.53V12.32C201.8 11.65 201.83 11.34 201.84 11.21C201.85 11.16 201.87 11.04 201.96 10.82C202.1 10.76 202.53 10.6 203.56 10.6ZM213.87 9C212.27 9 211.27 9.33 210.89 9.99C210.69 10.37 210.57 10.71 210.53 11C210.49 11.29 210.47 11.73 210.47 12.32L210.51 30.53C210.51 35.87 213.21 38.55 218.6 38.55C219.67 38.55 220.5 38.33 221.1 37.88C221.7 37.43 222 36.54 222 35.19C222 33.84 221.72 32.95 221.16 32.52C220.6 32.09 219.9 31.87 219.06 31.87C218.22 31.87 217.7 31.79 217.49 31.64C217.29 31.49 217.18 31.17 217.18 30.69V12.36C217.18 11.39 217.04 10.63 216.76 10.07C216.39 9.36 215.42 9 213.87 9ZM203.56 9C201.93 9 200.94 9.33 200.58 9.99C200.4 10.37 200.29 10.71 200.26 11C200.22 11.29 200.2 11.73 200.2 12.32V30.53C200.2 33.41 200.72 35.46 201.77 36.69C202.81 37.92 204.62 38.54 207.19 38.54C208 38.54 208.63 38.32 209.06 37.87C209.49 37.42 209.71 36.53 209.71 35.18C209.71 33.83 209.51 32.94 209.1 32.51C208.69 32.08 208.07 31.86 207.23 31.86C207 31.86 206.89 31.47 206.89 30.68V12.36C206.89 11.77 206.87 11.34 206.83 11.04C206.79 10.75 206.67 10.42 206.47 10.07C206.08 9.36 205.12 9 203.56 9Z" fill="#162A46"/>
<path d="M24.0001 43.6799C34.869 43.6799 43.6801 34.8689 43.6801 23.9999C43.6801 13.131 34.869 4.31995 24.0001 4.31995C13.1311 4.31995 4.32007 13.131 4.32007 23.9999C4.32007 34.8689 13.1311 43.6799 24.0001 43.6799Z" fill="#33A9FF"/>
<path d="M24 5.27999C34.32 5.27999 42.72 13.68 42.72 24C42.72 34.32 34.32 42.72 24 42.72C13.68 42.72 5.27999 34.32 5.27999 24C5.27999 13.68 13.68 5.27999 24 5.27999ZM24 3.35999C12.62 3.35999 3.35999 12.62 3.35999 24C3.35999 35.38 12.62 44.64 24 44.64C35.38 44.64 44.64 35.38 44.64 24C44.64 12.62 35.38 3.35999 24 3.35999Z" fill="#33A9FF"/>
<path d="M48.0001 24C48.0001 37.26 37.2601 48 24.0001 48C17.8301 48 12.2101 45.68 7.96008 41.85C8.68008 41.41 9.42008 40.97 10.1401 40.56L10.1501 40.55C10.4501 40.38 10.7401 40.22 11.0301 40.06C12.6101 39.21 14.0401 38.56 14.9301 38.42C17.9801 37.95 19.7801 35.51 20.2601 35.01C21.6801 33.51 23.0201 33.54 23.4801 33.4C25.6501 32.74 26.7601 31.2 26.9201 30.99C28.3301 29.17 30.8201 28.87 31.3601 28.71C33.8901 27.97 34.9101 26.67 35.3801 26.42C37.8501 25.07 39.3301 26.27 41.0201 24C41.8601 22.88 43.7001 21.6 45.3401 20.61C46.1801 20.1 46.9801 19.65 47.5501 19.35C47.8501 20.85 48.0001 22.41 48.0001 24Z" fill="#F5F9FF"/>
<path d="M48.0001 24C48.0001 24.06 48.0001 24.12 48.0001 24.18C47.9901 22.65 47.8401 21.15 47.5501 19.69C46.9701 20 46.1801 20.44 45.3401 20.95C43.7001 21.95 41.8601 23.22 41.0201 24.34C39.3301 26.6 37.8501 25.4 35.3801 26.76C34.9101 27.02 33.8901 28.31 31.3601 29.05C30.8201 29.21 28.3301 29.51 26.9201 31.33C26.7601 31.54 25.6501 33.08 23.4801 33.74C23.0301 33.88 21.6801 33.85 20.2601 35.35C19.7801 35.86 17.9801 38.29 14.9301 38.76C14.0401 38.9 12.6101 39.55 11.0301 40.4C10.7401 40.56 10.4501 40.72 10.1501 40.89L10.1401 40.9C9.50009 41.26 8.84009 41.65 8.20009 42.04C8.12009 41.97 8.04009 41.9 7.97009 41.83C8.69009 41.39 9.43009 40.95 10.1501 40.54L10.1601 40.53C10.4601 40.36 10.7501 40.2 11.0401 40.04C12.6201 39.19 14.0501 38.54 14.9401 38.4C17.9901 37.93 19.7901 35.49 20.2701 34.99C21.6901 33.49 23.0301 33.52 23.4901 33.38C25.6601 32.72 26.7701 31.18 26.9301 30.97C28.3401 29.15 30.8301 28.85 31.3701 28.69C33.9001 27.95 34.9201 26.65 35.3901 26.4C37.8601 25.05 39.3401 26.25 41.0301 23.98C41.8701 22.86 43.7101 21.58 45.3501 20.59C46.1901 20.08 46.9901 19.63 47.5601 19.33C47.8501 20.85 48.0001 22.41 48.0001 24Z" fill="white"/>
<path d="M23.9999 47.2001C18.2599 47.2001 12.7599 45.09 8.49993 41.2601C3.60993 36.8601 0.799927 30.57 0.799927 24C0.799927 17.8 3.20993 11.98 7.58993 7.59005C11.9799 3.21005 17.7999 0.800049 23.9999 0.800049C29.4099 0.800049 34.6699 2.70005 38.8199 6.15005C42.9199 9.56005 45.7399 14.3 46.7599 19.5C47.0499 20.97 47.1999 22.48 47.1999 24C47.1999 30.2 44.7899 36.0201 40.4099 40.4001C36.0199 44.7901 30.1999 47.2001 23.9999 47.2001ZM23.9999 1.60005C18.0199 1.60005 12.3899 3.93005 8.15993 8.16005C3.92993 12.39 1.59993 18.0201 1.59993 24C1.59993 30.65 4.52993 36.91 9.62993 41.18C13.6499 44.55 18.7499 46.4001 23.9999 46.4001C29.9799 46.4001 35.6099 44.07 39.8399 39.84C44.0699 35.6101 46.3999 29.98 46.3999 24C46.3999 22.82 46.3099 21.63 46.1199 20.48C45.2999 15.27 42.6299 10.49 38.6199 7.03005C34.5599 3.53005 29.3699 1.60005 23.9999 1.60005Z" fill="#33A9FF"/>
<path d="M24 0C10.74 0 0 10.74 0 24C0 31.09 3.07 37.46 7.96 41.85C12.21 45.68 17.83 48 24 48C37.26 48 48 37.26 48 24C48 22.41 47.85 20.85 47.55 19.34C45.38 8.32 35.66 0 24 0ZM24 45.6C18.72 45.6 13.89 43.71 10.14 40.57C5.41 36.6 2.4 30.65 2.4 24C2.4 12.07 12.07 2.4 24 2.4C34.77 2.4 43.71 10.29 45.33 20.61C45.51 21.72 45.6 22.85 45.6 24C45.6 35.93 35.93 45.6 24 45.6Z" fill="#33A9FF"/>
<path d="M24 29.72C28.6392 29.72 32.4 25.9592 32.4 21.32C32.4 16.6809 28.6392 12.92 24 12.92C19.3608 12.92 15.6 16.6809 15.6 21.32C15.6 25.9592 19.3608 29.72 24 29.72Z" fill="#F5F9FF"/>
<path d="M30.61 26.5101C31.5 25.1801 32.01 23.5801 32.01 21.8601C32.01 17.22 28.25 13.46 23.61 13.46C20.93 13.46 18.54 14.72 17.01 16.67C18.51 14.41 21.09 12.92 24 12.92C28.64 12.92 32.4 16.68 32.4 21.32C32.4 23.2801 31.73 25.0801 30.61 26.5101Z" fill="white"/>
<path d="M18.25 31.16C18.8741 31.16 19.38 30.6541 19.38 30.03C19.38 29.4059 18.8741 28.9 18.25 28.9C17.6259 28.9 17.12 29.4059 17.12 30.03C17.12 30.6541 17.6259 31.16 18.25 31.16Z" fill="#F5F9FF"/>
<path d="M18.38 30.97C17.76 30.97 17.25 30.46 17.25 29.84C17.25 29.64 17.3 29.46 17.39 29.29C17.22 29.49 17.12 29.74 17.12 30.02C17.12 30.64 17.63 31.15 18.25 31.15C18.68 31.15 19.05 30.91 19.24 30.56C19.03 30.82 18.73 30.97 18.38 30.97Z" fill="#C7D8EF"/>
<path d="M17.4601 34.57C17.7528 34.57 17.9901 34.3327 17.9901 34.04C17.9901 33.7473 17.7528 33.51 17.4601 33.51C17.1673 33.51 16.9301 33.7473 16.9301 34.04C16.9301 34.3327 17.1673 34.57 17.4601 34.57Z" fill="#F5F9FF"/>
<path d="M17.5201 34.4799C17.2301 34.4799 16.9901 34.2399 16.9901 33.95C16.9901 33.86 17.0101 33.77 17.0601 33.7C16.9801 33.79 16.9301 33.91 16.9301 34.0399C16.9301 34.3299 17.1701 34.57 17.4601 34.57C17.6601 34.57 17.8301 34.4599 17.9201 34.2999C17.8201 34.4099 17.6801 34.4799 17.5201 34.4799Z" fill="#C7D8EF"/>
<path d="M12.3299 36.67C12.6226 36.67 12.8599 36.4327 12.8599 36.14C12.8599 35.8473 12.6226 35.61 12.3299 35.61C12.0372 35.61 11.7999 35.8473 11.7999 36.14C11.7999 36.4327 12.0372 36.67 12.3299 36.67Z" fill="#F5F9FF"/>
<path d="M12.3899 36.58C12.0999 36.58 11.8599 36.34 11.8599 36.05C11.8599 35.96 11.8799 35.87 11.9299 35.8C11.8499 35.89 11.7999 36.01 11.7999 36.14C11.7999 36.43 12.0399 36.67 12.3299 36.67C12.5299 36.67 12.6999 36.56 12.7899 36.4C12.6999 36.51 12.5499 36.58 12.3899 36.58Z" fill="#C7D8EF"/>
<path d="M9.35998 34.8301C9.50357 34.8301 9.61998 34.7137 9.61998 34.5701C9.61998 34.4265 9.50357 34.3101 9.35998 34.3101C9.21638 34.3101 9.09998 34.4265 9.09998 34.5701C9.09998 34.7137 9.21638 34.8301 9.35998 34.8301Z" fill="#F5F9FF"/>
<path d="M9.38998 34.79C9.23998 34.79 9.12998 34.67 9.12998 34.53C9.12998 34.48 9.13998 34.44 9.15998 34.4C9.11998 34.45 9.09998 34.51 9.09998 34.57C9.09998 34.72 9.21998 34.83 9.35998 34.83C9.45998 34.83 9.54998 34.77 9.58998 34.69C9.53998 34.75 9.46998 34.79 9.38998 34.79Z" fill="#C7D8EF"/>
<path d="M14.87 32.98C15.1627 32.98 15.4 32.7428 15.4 32.45C15.4 32.1573 15.1627 31.92 14.87 31.92C14.5773 31.92 14.34 32.1573 14.34 32.45C14.34 32.7428 14.5773 32.98 14.87 32.98Z" fill="#F5F9FF"/>
<path d="M14.93 32.89C14.64 32.89 14.4 32.65 14.4 32.36C14.4 32.27 14.42 32.18 14.47 32.11C14.39 32.2 14.34 32.32 14.34 32.45C14.34 32.74 14.58 32.98 14.87 32.98C15.07 32.98 15.24 32.87 15.33 32.71C15.23 32.82 15.09 32.89 14.93 32.89Z" fill="#C7D8EF"/>
<path d="M43.13 34.02C39.51 40.89 32.3 45.58 24 45.58C18.73 45.58 13.9 43.69 10.15 40.56C10.45 40.39 10.74 40.23 11.03 40.07C14.72 43 19.38 44.75 24.46 44.75C32.43 44.75 39.38 40.44 43.13 34.02Z" fill="#C7D8EF"/>
<path d="M10.95 33.6601C10.91 33.6601 10.88 33.6401 10.86 33.6101C10.82 33.5601 10.83 33.4801 10.88 33.4401L16.74 28.7801C16.79 28.7401 16.87 28.7501 16.91 28.8001C16.95 28.8501 16.94 28.9301 16.89 28.9701L11.03 33.6301C11 33.6501 10.98 33.6601 10.95 33.6601Z" fill="white"/>
<path d="M9.60003 30.99C9.56003 30.99 9.53003 30.97 9.51003 30.94C9.47003 30.89 9.48003 30.81 9.53003 30.77L15.39 26.11C15.44 26.07 15.52 26.08 15.56 26.13C15.6 26.18 15.59 26.26 15.54 26.3L9.68003 30.96C9.65003 30.98 9.62003 30.99 9.60003 30.99Z" fill="white"/>
<path d="M13.8401 29.47C13.8201 29.47 13.8001 29.46 13.7901 29.45C13.7701 29.42 13.7701 29.39 13.8001 29.37L15.9901 27.63C16.0201 27.61 16.0501 27.61 16.0701 27.64C16.0901 27.67 16.0901 27.7 16.0601 27.72L13.8701 29.46C13.8701 29.46 13.8501 29.47 13.8401 29.47Z" fill="white"/>
<path d="M13.31 35.54C13.29 35.54 13.27 35.53 13.26 35.52C13.24 35.49 13.24 35.46 13.27 35.44L15.46 33.7C15.49 33.68 15.52 33.68 15.54 33.71C15.56 33.74 15.56 33.77 15.53 33.79L13.34 35.53C13.34 35.54 13.32 35.54 13.31 35.54Z" fill="white"/>
<path d="M13.1001 26.3C13.0801 26.3 13.0601 26.29 13.0501 26.28C13.0301 26.25 13.0301 26.22 13.0601 26.2L14.7001 24.9C14.7301 24.88 14.7601 24.88 14.7801 24.91C14.8001 24.94 14.8001 24.97 14.7701 24.99L13.1301 26.29C13.1301 26.29 13.1201 26.3 13.1001 26.3Z" fill="white"/>
<path d="M29.57 27.61C28.09 28.92 26.14 29.72 24 29.72C19.36 29.72 15.6 25.96 15.6 21.32C15.6 18.5 16.99 16 19.13 14.48C17.4 16.02 16.3 18.26 16.3 20.76C16.3 25.4 20.06 29.16 24.7 29.16C26.52 29.16 28.19 28.59 29.57 27.61Z" fill="#C7D8EF"/>
<path d="M24 4.32002C29.26 4.32002 34.2 6.37002 37.92 10.08C41.64 13.8 43.68 18.74 43.68 24C43.68 29.26 41.63 34.2 37.92 37.92C34.2 41.64 29.26 43.68 24 43.68C18.74 43.68 13.8 41.63 10.08 37.92C6.37002 34.2 4.32002 29.26 4.32002 24C4.32002 18.74 6.37002 13.8 10.08 10.08C13.79 6.36002 18.74 4.32002 24 4.32002ZM24 2.40002C12.07 2.40002 2.40002 12.07 2.40002 24C2.40002 35.93 12.07 45.6 24 45.6C35.93 45.6 45.6 35.93 45.6 24C45.6 12.07 35.93 2.40002 24 2.40002Z" fill="white"/>
</g>
<defs>
<clipPath id="clip0">
<rect width="222" height="48" fill="white"/>
</clipPath>
</defs>
</svg>
