<svg id="Capa_1" enable-background="new 0 0 512 512" height="512" viewBox="0 0 512 512" width="512" xmlns="http://www.w3.org/2000/svg"><g><path d="m457.719 268.39c-4.034-3.358-8.419-7.056-13.021-9.147h-376.528c-7.185 2.87-13.998 6.294-19.817 12.231-11.243 11.411-26.029 11.169-40.853 11.294v161.732c0 33.137 26.863 60 60 60h377c33.137 0 60-26.863 60-60 0-15.53 0-146.683 0-161.744-15.96.271-33.958-3.693-46.781-14.366z" fill="#7ce3ff"/><g><path d="m380.53 152.209-61.478-98.852h-110.473c-9.866 14.881-18.955 28.59-27.331 41.222v217.431h233.45l30-52.768c-3.789-14.099-5.183-13.254-64.168-107.033z" fill="#b9f0ff"/><path d="m307.044 34.266c-7.489-11.907-24.845-11.907-32.334 0l-9.032-14.36c-10.281-16.346-34.024-16.583-44.63-.446-155.681 234.912-147.048 220.839-152.878 239.783l30 52.768h108.287l-.006-39.996c-4.952-22.23-.913-45.936 11.967-65.539l2.833-4.31c3.91-5.949 93.451-142.188 97.802-148.808z" fill="#7ce3ff"/></g><g><path d="m444.698 259.243c-20.173-9.167-44.53-5.184-61.944 10.015-24.183 21.104-63.138 19.581-86.172-3.867-19.831-20.188-51.534-23.16-74.415-7.041-7.47 5.262-8.071 7.784-15.716 13.665v152.608h134.303l81.848-81.848c22.028-22.028 29.857-54.65 22.096-83.532z" fill="#2ed0fc"/><path d="m335.113 419.486c-114.864-114.864-121.738-116.471-128.662-147.471-6.02 4.628-12.698 8.232-19.653 10.638-18.44 6.378-38.785 4.349-53.726-9.335-.667-.611-1.325-1.248-1.97-1.905-16.847-17.099-41.843-20.595-62.933-12.169-9.115 29.62-1.584 61.716 21.228 84.528l105.716 105.716c16.016 16.016 37.738 25.014 60.389 25.014s44.373-8.998 60.389-25.014l24.864-24.864c-1.946-1.627-3.835-3.331-5.642-5.138z" fill="#1cbbea"/></g><g fill="#ff8e9e"><ellipse cx="182.744" cy="229.289" rx="27.03" ry="21.525"/><ellipse cx="329.256" cy="229.289" rx="27.03" ry="21.525"/></g><g><path d="m206.789 196.259c-4.392 5.04-12.196 5.035-16.584 0-2.722-3.123-7.459-3.449-10.582-.728s-3.448 7.459-.727 10.581c10.37 11.902 28.842 11.89 39.202 0 2.721-3.122 2.396-7.86-.727-10.581-3.124-2.721-7.861-2.397-10.582.728z"/><path d="m321.796 196.258c-4.392 5.04-12.195 5.038-16.585.001-2.721-3.123-7.459-3.449-10.582-.728s-3.448 7.459-.727 10.581c10.369 11.9 28.839 11.891 39.202.001 2.722-3.123 2.396-7.86-.727-10.582-3.121-2.72-7.859-2.396-10.581.727z"/><path d="m267.562 204.422c-6.167 7.076-17.12 7.067-23.279 0-2.722-3.122-7.459-3.447-10.582-.727-3.123 2.722-3.448 7.459-.727 10.582 12.145 13.935 33.764 13.92 45.896 0 2.721-3.123 2.396-7.86-.727-10.582-3.122-2.721-7.859-2.396-10.581.727z"/><path d="m504.37 275.257c-14.578.246-30.784-3.418-41.853-12.632-3.58-2.98-7.459-5.545-11.553-7.677-2.384-7.706-5.763-15.113-10.11-22.025l-69.213-110.043c-2.205-3.507-6.838-4.561-10.342-2.355-3.506 2.205-4.561 6.836-2.355 10.342 75.452 119.96 70.754 112.12 73.458 117.732-22.172-4.023-40.185 2.901-56.684 16.749-21.428 16.75-54.368 14.553-73.673-5.097l-.112-.115c-25.641-26.102-67.776-26.336-93.227-.125-11.322 11.66-26.992 18.621-41.919 18.621-20.198 0-29.072-11.755-34.403-16.25-13.723-11.773-32.299-17.758-51.6-15.142 2.895-5.519-7.274 10.424 146.533-223.661 7.726-11.755 24.742-11.24 32.014.321 5.394 8.576 18.149 28.855 23.421 37.237 2.207 3.508 6.838 4.56 10.342 2.355 3.506-2.205 4.561-6.836 2.355-10.342l-11.4-18.125c4.963-3.64 12.795-2.891 16.647 3.233l42.275 67.213c2.205 3.507 6.837 4.561 10.342 2.355 3.506-2.205 4.561-6.836 2.355-10.342l-42.275-67.213c-8.193-13.024-25.24-16.073-37.334-7.95l-4.031-6.409c-6.268-9.963-17.039-15.912-28.813-15.912-11.492 0-22.121 5.734-28.435 15.34-3.235 4.924-138.529 210.777-142.63 217.017-4.206 6.4-7.566 13.235-10.06 20.357-7.009 3.268-13.464 7.796-19.08 13.498-8.993 9.127-21.279 8.944-35.574 9.057-4.117.034-7.436 3.381-7.436 7.499v161.732c0 37.22 30.28 67.5 67.5 67.5h27.172c4.142 0 7.5-3.357 7.5-7.5s-3.358-7.5-7.5-7.5h-27.172c-28.949 0-52.5-23.552-52.5-52.5v-154.322c29.257-.682 34.699-10.427 42.427-16.882-2.958 27.251 6.019 55.131 26.667 75.779l105.716 105.715c36.293 36.292 95.084 36.297 131.384 0 110.595-110.595 108.172-108.205 108.172-108.205 18.199-19.029 27.4-44.601 25.51-70.898 13.891 10.603 30.596 13.688 42.124 14.397v154.416c0 28.948-23.552 52.5-52.5 52.5h-319.828c-4.142 0-7.5 3.357-7.5 7.5s3.358 7.5 7.5 7.5h319.828c37.22 0 67.5-30.28 67.5-67.5v-161.744c0-4.301-3.618-7.632-7.63-7.499zm-87.071 62.214-106.712 106.712c-30.434 30.432-79.736 30.434-110.171 0l-105.715-105.716c-20.204-20.203-26.998-48.659-20.378-74.457 16.862-5.372 36.58-2.002 51.49 12.718 27.778 27.451 69.492 18.615 93.655-6.27 19.535-20.119 51.999-19.933 71.734.156l.112.115c24.597 25.038 67.997 28.917 96.372 4.178 13.724-11.977 33.112-15.705 50.626-9.197 5.536 25.279-1.728 52.522-21.013 71.761z"/></g></g></svg>