<svg id="Capa_1" enable-background="new 0 0 512 512" height="512" viewBox="0 0 512 512" width="512" xmlns="http://www.w3.org/2000/svg"><g><g><g><g><circle cx="256" cy="243.783" fill="#b6f0ff" r="243.783"/><path d="m499.782 243.779c0 134.638-109.143 243.782-243.782 243.782-61.107 0-116.965-22.488-159.751-59.643 32.169 15.933 68.414 24.876 106.73 24.876 133.082 0 240.959-107.877 240.959-240.959 0-80.495-39.476-151.785-100.135-195.535 91.258 35.229 155.979 123.796 155.979 227.479z" fill="#73e1ff"/><path d="m47.879 319.689c8.773-3.946 13.42-13.657 10.913-22.944-4.56-16.895-7.005-34.647-7.005-52.967 0-62.996 28.679-119.421 73.663-156.911 6.926-5.772 9.122-15.458 5.249-23.6-.061-.129-.122-.257-.184-.386-5.527-11.616-20.505-14.771-30.392-6.541-53.713 44.718-87.905 112.083-87.905 187.439 0 21.897 2.906 43.109 8.336 63.287 3.135 11.651 15.961 17.74 26.963 12.786.121-.054.241-.108.362-.163z" fill="#dcfeff"/><path d="m64.928 171.71c4.611-12.183 10.355-23.814 17.103-34.763 5.281-8.568 3.309-19.723-4.658-25.873-.116-.089-.231-.178-.347-.268-9.176-7.083-22.524-4.744-28.612 5.121-8.146 13.199-15.067 27.234-20.608 41.945-3.929 10.432 1.602 22.048 12.184 25.553.125.042.251.083.376.125 10.038 3.323 20.819-1.951 24.562-11.84z" fill="#fefefe"/></g><g><g><g><path d="m210.234 53.987c0 76.434-108.068 194.622-125.684 213.38-1.697 1.807-2.486 4.314-2.001 6.745 1.951 9.78 10.583 17.151 20.937 17.151 11.791 0 21.35-9.559 21.35-21.35 0 11.791 9.559 21.35 21.35 21.35s21.35-9.559 21.35-21.35c0 11.791 9.559 21.35 21.35 21.35s21.35-9.559 21.35-21.35c0 11.791 9.559 21.35 21.35 21.35s21.35-9.559 21.35-21.35c0 11.791 9.559 21.35 21.35 21.35s21.35-9.559 21.35-21.35c0 11.791 9.559 21.35 21.35 21.35 10.354 0 18.986-7.37 20.937-17.151.485-2.431-.304-4.938-2.001-6.745-17.62-18.758-125.688-136.946-125.688-213.38z" fill="#3cd3d3"/><path d="m335.919 267.369c1.695 1.805 2.487 4.315 2.001 6.747-1.953 9.775-10.584 17.15-20.94 17.15-11.792 0-21.348-9.564-21.348-21.355 0 11.792-9.556 21.355-21.348 21.355-5.084 0-9.744-1.773-13.408-4.739 9.477-14.757 14.969-32.308 14.969-51.145 0-.038 0-.077 0-.116-.036-5.209-5.297-8.651-10.188-6.857-3.97 1.456-8.254 2.25-12.72 2.25-7.947 0-15.314-2.511-21.355-6.786-6.033 4.276-13.408 6.786-21.348 6.786s-15.314-2.511-21.348-6.786c-6.041 4.276-13.408 6.786-21.355 6.786-7.94 0-15.307-2.511-21.348-6.786-6.033 4.276-13.408 6.786-21.348 6.786-2.526 0-5.005-.251-7.406-.737 37.917-45.786 92.804-121.464 92.804-175.935.001 76.431 108.073 194.623 125.686 213.382z" fill="#12adb5"/><path d="m314.024 191.008c-9.404-8.507-39.487-37.235-64.86-78.189h-77.86c-25.373 40.954-55.456 69.682-64.86 78.189-2.107 1.907-3.037 4.812-2.379 7.577 2.237 9.398 10.687 16.387 20.77 16.387 11.791 0 21.35-9.559 21.35-21.35 0 11.791 9.559 21.35 21.35 21.35s21.35-9.559 21.35-21.35c0 11.791 9.559 21.35 21.35 21.35s21.35-9.559 21.35-21.35c0 11.791 9.559 21.35 21.35 21.35s21.35-9.559 21.35-21.35c0 11.791 9.558 21.35 21.35 21.35 10.083 0 18.533-6.989 20.77-16.387.656-2.765-.273-5.67-2.381-7.577z" fill="#57eae6"/><path d="m316.399 198.587c-2.236 9.399-10.686 16.381-20.767 16.381-5.892 0-11.235-2.385-15.095-6.253-3.868-3.86-6.253-9.203-6.253-15.095 0 11.792-9.564 21.348-21.348 21.348-7.359 0-13.847-3.719-17.692-9.391.471.024.941.031 1.412.031 20.1 0 36.395-16.295 36.395-36.395 0-.046 0-.093 0-.139-.025-6.662-4.329-12.647-10.64-14.784-3.409-1.154-6.596-2.792-9.476-4.832-6.041 4.276-13.408 6.786-21.355 6.786-7.94 0-15.307-2.511-21.348-6.786-6.041 4.276-13.408 6.786-21.348 6.786-7.947 0-15.314-2.511-21.355-6.786-6.033 4.276-13.4 6.786-21.348 6.786-2.071 0-4.111-.173-6.096-.502 10.066-11.988 21.026-26.471 31.217-42.923h77.859c25.372 40.953 55.46 69.684 64.859 78.188 2.113 1.908 3.038 4.811 2.379 7.58z" fill="#3cd3d3"/><path d="m210.234 29.376c-2.89 0-5.528 1.645-6.784 4.248-17.247 35.719-62.358 72.836-75.174 82.921-2.387 1.878-3.533 4.98-2.787 7.924 2.344 9.245 10.721 16.086 20.696 16.086 11.791 0 21.35-9.559 21.35-21.35 0 11.791 9.559 21.35 21.35 21.35s21.35-9.559 21.35-21.35c0 11.791 9.559 21.35 21.35 21.35s21.35-9.559 21.35-21.35c0 11.791 9.559 21.35 21.35 21.35 9.974 0 18.351-6.84 20.696-16.086.747-2.944-.4-6.046-2.787-7.924-12.816-10.085-57.927-47.202-75.174-82.921-1.258-2.603-3.896-4.248-6.786-4.248z" fill="#a5f9f3"/><path d="m294.981 124.471c-2.346 9.242-10.725 16.083-20.696 16.083-11.792 0-21.348-9.556-21.348-21.348 0 11.792-9.564 21.348-21.355 21.348-7.367 0-13.863-3.734-17.707-9.407 21.379-1.844 38.145-19.778 38.145-41.636 0-3.64-.463-7.171-1.342-10.537 16.915 17.699 34.316 31.9 41.518 37.572 2.385 1.876 3.531 4.975 2.785 7.925z" fill="#57eae6"/></g><g><g><path d="m431.372 253.426v-11.595l-55.903-61.737c-3.623-4.001-8.768-6.283-14.165-6.283h-148.93v79.615z" fill="#f9f8f2"/><path d="m431.37 241.83v11.6h-219v-79.62h13.78c4.85 36.85 36.38 65.3 74.56 65.3 36.36 0 66.69-25.81 73.69-60.1.37.34.73.7 1.07 1.08z" fill="#f1eee0"/><path d="m269.992 250.08h152.601v125.541h-152.601z" fill="#b55434"/><path d="m269.996 250.08h152.6v125.54h-152.6z" fill="#b55434"/><g fill="#a1412b"><path d="m422.6 250.08v125.54h-46.68c18.07-20.28 29.05-47.02 29.05-76.31 0-17.62-3.97-34.31-11.08-49.23z"/><path d="m269.996 250.08h152.6v27.5h-152.6"/><path d="m336.255 250.08v43.479c0 6.952 5.636 12.588 12.588 12.588 6.952 0 12.588-5.636 12.588-12.588v-13.496c0-6.952 5.636-12.588 12.588-12.588s12.588 5.636 12.588 12.588v38.078c0 6.931 5.422 12.876 12.352 13.003 7.06.129 12.823-5.555 12.823-12.586v-68.478z"/><path d="m285.533 250.08v48.076c0 6.931 5.422 12.876 12.352 13.003 7.06.129 12.823-5.555 12.823-12.586v-48.493z"/></g><path d="m269.996 250.08v125.54h-119.43v-125.54l59.71-65.94z" fill="#db765a"/><path d="m236.061 375.62h-59.919v-67.037c0-16.546 13.413-29.96 29.96-29.96 16.546 0 29.96 13.413 29.96 29.96v67.037z" fill="#ffc751"/><path d="m236.06 308.58v67.04h-59.92v-10.91c27.07-7.75 46.88-32.69 46.88-62.25 0-7.19-1.17-14.11-3.34-20.58 2.82 1.43 5.39 3.3 7.61 5.52 5.42 5.42 8.77 12.91 8.77 21.18z" fill="#ffaf40"/><path d="m269.996 277.58c-9.17 0-17.95-3.89-24.1-10.69l-35.62-39.33-35.62 39.33c-6.15 6.8-14.93 10.69-24.09 10.69v-27.5l59.71-65.94 59.72 65.94z" fill="#b55434"/></g><g><path d="m150.564 262.58c-2.992 0-5.993-1.067-8.386-3.234-5.117-4.634-5.509-12.539-.875-17.656l59.712-65.944c2.37-2.617 5.735-4.11 9.266-4.11s6.896 1.493 9.266 4.11l52.579 58.066c2.172 2.399 5.258 3.768 8.495 3.768h143.808c6.883 0 12.787 5.385 12.912 12.267.128 7.011-5.517 12.733-12.498 12.733h-154.85c-3.53 0-6.896-1.493-9.266-4.11l-50.446-55.711-50.446 55.711c-2.468 2.725-5.864 4.11-9.271 4.11z" fill="#02718c"/></g><g><path d="m171.9 245.145 12.3-13.584c3.888-4.294 4.274-10.708.938-15.443-.049-.07-.098-.14-.148-.209-4.564-6.479-13.965-7.043-19.285-1.169l-12.329 13.616c-4.425 4.887-4.241 12.382.419 17.046l.177.177c5.003 5.008 13.176 4.814 17.928-.434z" fill="#0d8ba0"/></g><path d="m336.255 231.503v44.419c0 6.952 5.636 12.588 12.588 12.588 6.952 0 12.588-5.636 12.588-12.588v-13.496c0-6.952 5.636-12.588 12.588-12.588 6.952 0 12.588 5.636 12.588 12.588v38.078c0 6.931 5.422 12.876 12.352 13.003 7.06.129 12.823-5.555 12.823-12.586v-69.419h-75.527z" fill="#f1eee0"/><path d="m285.533 220.416v60.103c0 6.931 5.422 12.876 12.352 13.003 7.06.129 12.823-5.555 12.823-12.586v-60.52z" fill="#f9f8f2"/></g><path d="m172.743 75.849c-5.594 6.011-11.308 11.669-16.751 16.788-8.16 7.673-2.682 21.383 8.519 21.383h.379c3.156 0 6.189-1.196 8.487-3.359 5.786-5.445 11.799-11.418 17.698-17.771 4.594-4.947 4.408-12.66-.444-17.354-.06-.058-.12-.116-.18-.175-4.995-4.833-12.973-4.601-17.708.488z" fill="#defffc"/><path d="m150.983 181.383c1.387-1.556 2.799-3.162 4.231-4.818 6.996-8.09 1.205-20.666-9.49-20.666-3.618 0-7.069 1.559-9.436 4.296-1.338 1.546-2.655 3.045-3.948 4.495-7.197 8.071-1.485 20.847 9.329 20.847h.003c3.554 0 6.946-1.502 9.311-4.154z" fill="#a5f9f3"/></g><path d="m488.6 316.98c-31.08 98.87-123.46 170.59-232.6 170.59-96.1 0-179.22-55.61-218.91-136.41 26.15-14.27 83.71-28.16 201.1 5.84 147.73 42.79 212.25-24.84 250.41-40.02z" fill="#f1eee0"/><path d="m488.6 316.98c-31.08 98.87-123.46 170.59-232.6 170.59-61.11 0-116.97-22.49-159.75-59.65 32.17 15.93 68.41 24.87 106.73 24.87 75.86 0 143.52-35.05 187.68-89.83 47.33-12.86 76.71-37.54 97.94-45.98z" fill="#e8e4d8"/><g fill="#f9f8f2"><path d="m304.506 63.592c-6.684 0-12.103-5.418-12.103-12.103v-3.509c0-6.684 5.418-12.103 12.103-12.103 6.684 0 12.103 5.418 12.103 12.103v3.509c0 6.685-5.419 12.103-12.103 12.103z"/><path d="m97.082 253.426c-6.684 0-12.103-5.418-12.103-12.103v-3.509c0-6.684 5.418-12.103 12.103-12.103 6.684 0 12.103 5.418 12.103 12.103v3.509c-.001 6.685-5.419 12.103-12.103 12.103z"/><path d="m185.345 204.693c-6.684 0-12.103-5.418-12.103-12.103v-3.509c0-6.684 5.418-12.103 12.103-12.103 6.684 0 12.103 5.418 12.103 12.103v3.509c-.001 6.684-5.419 12.103-12.103 12.103z"/><path d="m374.018 134.874c-6.684 0-12.103-5.418-12.103-12.103v-3.509c0-6.684 5.418-12.103 12.103-12.103 6.684 0 12.103 5.418 12.103 12.103v3.509c0 6.685-5.419 12.103-12.103 12.103z"/><path d="m434.696 200.516c-6.684 0-12.103-5.418-12.103-12.103v-3.509c0-6.684 5.418-12.103 12.103-12.103 6.684 0 12.103 5.418 12.103 12.103v3.509c0 6.685-5.419 12.103-12.103 12.103z"/><path d="m256 92.832c-6.684 0-12.103-5.418-12.103-12.103v-3.509c0-6.684 5.418-12.103 12.103-12.103 6.684 0 12.103 5.418 12.103 12.103v3.509c0 6.684-5.419 12.103-12.103 12.103z"/></g><path d="m332.048 342.02h-62.052v-21.745h62.052c6.005 0 10.872 4.868 10.872 10.872.001 6.005-4.867 10.873-10.872 10.873z" fill="#db765a"/><path d="m292.312 331.147c0 6.005 4.868 10.872 10.872 10.872h3.866c6.005 0 10.872-4.868 10.872-10.872 0-6.005-4.868-10.872-10.872-10.872h-3.866c-6.004 0-10.872 4.867-10.872 10.872z" fill="#f4a698"/><path d="m256.722 342.02h13.274v-21.745h-13.274c-6.005 0-10.872 4.868-10.872 10.872-.001 6.005 4.867 10.873 10.872 10.873z" fill="#f4a698"/></g></g><g><g><g><path d="m480.725 498.484h-449.45l14.675-54.25c3.708-13.709 16.147-23.229 30.348-23.229h359.403c14.202 0 26.64 9.521 30.348 23.229z" fill="#29e088"/><path d="m242.63 450.34h26.74v30.07h-26.74z" fill="#ff993a"/><path d="m269.37 450.34v19.45c-4.27 1.11-8.75 1.7-13.37 1.7s-9.1-.59-13.37-1.7v-19.45z" fill="#f97c15"/><path d="m333.101 421.006h-230.517c-8.81 0-15.952 7.142-15.952 15.952 0 8.81 7.142 15.952 15.952 15.952h230.517c8.81 0 15.952-7.142 15.952-15.952-.001-8.811-7.142-15.952-15.952-15.952z" fill="#79ff79"/><path d="m161.947 421.228h-17.639c-8.81 0-15.952 7.142-15.952 15.952 0 8.81 7.142 15.952 15.952 15.952h17.639c8.81 0 15.952-7.142 15.952-15.952-.001-8.811-7.142-15.952-15.952-15.952z" fill="#c2ffc2"/><path d="m480.726 498.486h-122.769c35.578-10.951 62.962-40.598 70.685-77.476h7.063c14.2 0 26.639 9.516 30.349 23.223z" fill="#0cc166"/><path d="m478.491 512h-444.982c-8.723 0-15.794-7.071-15.794-15.794 0-8.723 7.071-15.794 15.794-15.794h444.981c8.723 0 15.794 7.071 15.794 15.794.001 8.723-7.07 15.794-15.793 15.794z" fill="#fe255f"/><path d="m313.909 480.411h-211.483c-8.723 0-15.794 7.071-15.794 15.794 0 8.723 7.071 15.794 15.794 15.794h211.483c8.723 0 15.794-7.071 15.794-15.794 0-8.722-7.071-15.794-15.794-15.794z" fill="#fc709b"/></g></g><circle cx="256" cy="426.006" fill="#ffc751" r="33.21"/><circle cx="249.093" cy="419.311" fill="#ffe059" r="23.573"/></g><path d="m212.719 350.126c-32.501-8.104-59.827-12.233-82.747-13.666-8.532-.533-15.726 6.283-15.726 14.831v.305c0 7.827 6.068 14.332 13.88 14.819 22.956 1.432 48.822 5.72 77.29 12.819 7.83 1.953 15.767-2.662 17.952-10.431.027-.096.054-.193.081-.289 2.268-8.044-2.621-16.366-10.73-18.388z" fill="#f9f8f2"/></g><circle cx="81.962" cy="353.004" fill="#f9f8f2" r="15.141"/></g></svg>